<svg width="64" height="64" viewBox="0 0 64 64" fill="none" xmlns="http://www.w3.org/2000/svg">
<g clip-path="url(#clip0_11_130)">
<path d="M61.9999 58H59.9999V49C59.9995 48.4696 59.7883 47.9611 59.4138 47.5861C59.0388 47.2116 58.5303 47.0004 58 47H57V37C56.9995 36.4696 56.7883 35.9612 56.4138 35.5862C56.0388 35.2116 55.5303 35.0004 55 35H54V31.5C54 30.9478 53.5522 30.5 53 30.5C52.4477 30.5 52 30.9478 52 31.5V35H49V29C49 28.4478 48.5522 28 48 28C47.4477 28 47 28.4478 47 29V35H44V31.5C44 30.9478 43.5522 30.5 43 30.5C42.4477 30.5 42 30.9478 42 31.5V35H39V29C39 28.4478 38.5522 28 38 28C37.4477 28 37 28.4478 37 29V35H36C35.4696 35.0004 34.9611 35.2116 34.5861 35.5862C34.2116 35.9612 34.0004 36.4696 34 37V47H33C32.4696 47.0004 31.9611 47.2116 31.5862 47.5861C31.2116 47.9611 31.0004 48.4696 31 49V58H29C28.4696 58.0004 27.9612 58.2116 27.5862 58.5861C27.2116 58.9611 27.0004 59.4696 27 60V63C27 63.5522 27.4478 64 28 64H63C63.5522 64 64 63.5522 64 63V60C63.9996 59.4696 63.7884 58.9611 63.4138 58.5861C63.0388 58.2116 62.5304 58.0004 62 58H61.9999ZM35.9999 37H54.9999V47H35.9999V37ZM32.9999 49H57.9999V58H50.9999V54C50.9995 53.4696 50.7883 52.9611 50.4138 52.5861C50.0388 52.2116 49.5303 52.0004 49 52H42C41.4696 52.0004 40.9611 52.2116 40.5861 52.5861C40.2116 52.9611 40.0004 53.4696 40 54V58H33L32.9999 49ZM48.9999 54V58H41.9999V54H48.9999ZM61.9999 62H28.9999V60H61.9999V62Z" fill="#181818"/>
<path d="M43 39H39C38.4478 39 38 39.4478 38 40V44C38 44.5522 38.4478 45 39 45H43C43.5522 45 44 44.5522 44 44V40C44 39.4478 43.5522 39 43 39ZM42 43H40V41H42V43Z" fill="#181818"/>
<path d="M52 39H48C47.4478 39 47 39.4478 47 40V44C47 44.5522 47.4478 45 48 45H52C52.5522 45 53 44.5522 53 44V40C53 39.4478 52.5522 39 52 39ZM51 43H49V41H51V43Z" fill="#181818"/>
<path d="M1.00021 15.4995H8.50021V17.4995C8.5011 17.9495 8.65423 18.3861 8.93414 18.7388C9.21405 19.091 9.60468 19.3388 10.0426 19.4419V30.0237C9.98994 30.2045 9.98994 30.3969 10.0426 30.5781V56.9998H9.00021C8.20468 57.0007 7.44215 57.3172 6.87964 57.8793C6.31758 58.4418 6.00107 59.2043 6.00018 59.9999V62.9999C6.00018 63.5521 6.44795 63.9999 7.00018 63.9999H22.0002C22.5524 63.9999 23.0002 63.5521 23.0002 62.9999V59.9999C22.9993 59.2043 22.6828 58.4418 22.1207 57.8793C21.5582 57.3172 20.7957 57.0007 20.0001 56.9998H19.0426V19.4158C19.4609 19.2989 19.8296 19.048 20.0926 18.7024C20.3555 18.3569 20.4988 17.9346 20.5001 17.5002V15.5002H22.1957L22.2158 15.5006L22.2354 15.5002H44.5006V18.1336C44.5006 18.4493 44.6497 18.7466 44.9028 18.935L46.6787 20.2596L44.4344 24.0001H41.5005C40.9483 24.0001 40.5005 24.4479 40.5005 25.0001C40.5005 25.5523 40.9483 26.0001 41.5005 26.0001H54.5005C55.0527 26.0001 55.5005 25.5523 55.5005 25.0001C55.5005 24.4479 55.0527 24.0001 54.5005 24.0001H51.5666L49.3237 20.2617L51.0991 18.9345C51.3518 18.7457 51.5005 18.4488 51.5005 18.1336V15.5001H55.5005C55.9139 15.5001 56.2849 15.2457 56.4335 14.8595C56.5822 14.4738 56.4782 14.0363 56.1715 13.7586L50.646 8.75862C50.462 8.59211 50.2232 8.50014 49.975 8.50014H42.6696L17.4456 2.439C17.2679 1.49837 16.6519 0.69923 15.7871 0.288145C14.9228 -0.123467 13.9143 -0.097124 13.0724 0.358234C12.2304 0.813594 11.6562 1.64349 11.5272 2.59218C11.3982 3.54084 11.7303 4.494 12.4201 5.15732L10.8102 9.50018H10.5C9.96962 9.50062 9.46114 9.71179 9.08661 10.0868C8.71161 10.4613 8.50045 10.9698 8.5 11.5002V13.5002H6V12.5002C6 11.4283 5.42813 10.4381 4.5 9.90198C3.57187 9.36627 2.42811 9.36627 1.5 9.90198C0.571874 10.4381 0 11.4283 0 12.5002V14.5002C0 15.0524 0.447771 15.5002 1 15.5002L1.00021 15.4995ZM20.0002 58.9989C20.552 58.9998 20.9993 59.4471 21.0002 59.9989V61.9989H8.00021V59.9989C8.0011 59.4471 8.44843 58.9998 9.00021 58.9989H20.0002ZM16.7939 43.5704L14.5002 48.2538L12.2065 43.5704L14.5002 39.1748L16.7939 43.5704ZM12.1439 30.3372L14.5001 26.3632L16.8559 30.3372L14.5001 34.8515L12.1439 30.3372ZM16.5563 56.9978H12.4439L14.5001 52.7996L16.5563 56.9978ZM15.6135 50.5264L17.0425 47.609V53.4438L15.6135 50.5264ZM15.6282 37.0121L17.0425 34.3018V39.7224L15.6282 37.0121ZM15.6626 24.4018L17.0425 22.0741V26.7294L15.6626 24.4018ZM14.5001 22.4406L12.7554 19.4978H16.2442L14.5001 22.4406ZM13.3375 24.4018L12.0425 26.5861V22.2173L13.3375 24.4018ZM13.3719 37.0121L12.0424 39.5594V34.4648L13.3719 37.0121ZM13.3867 50.5264L12.0424 53.2706V47.7826L13.3867 50.5264ZM46.7661 23.9984L48 21.9421L49.234 23.9984H46.7661ZM49.5 17.6305L48.0023 18.7501L46.5 17.63V15.4984H49.5V17.6305ZM49.5893 10.4984L52.905 13.4984H23.8787L25.4711 10.4984H49.5893ZM34.1082 8.49836H27.539L22.4702 5.7019L34.1082 8.49836ZM16.8362 4.87688L24.0938 8.88088L24.0942 8.88132C24.054 8.9273 24.0183 8.97686 23.9871 9.02954L21.6156 13.4983H20.5009V11.4983C20.5005 10.968 20.2893 10.4595 19.9143 10.085C19.5398 9.70997 19.0313 9.49881 18.5009 9.49836H18.3755L16.6366 5.1019C16.7072 5.03048 16.7732 4.95502 16.8362 4.8769L16.8362 4.87688ZM14.5009 1.99825C14.9053 1.99825 15.2701 2.242 15.4245 2.61565C15.5794 2.98931 15.4942 3.41922 15.208 3.70539C14.9218 3.99156 14.4919 4.07682 14.1183 3.9219C13.7446 3.76744 13.5009 3.4027 13.5009 2.99825C13.5013 2.44602 13.9486 1.99869 14.5009 1.99825ZM14.2459 5.98533C14.3303 5.99248 14.4147 5.99828 14.5009 5.99828C14.6116 5.99783 14.7227 5.99158 14.833 5.97864L16.225 9.49829H12.9442L14.2459 5.98533ZM10.5008 11.4982H18.5008L18.5021 17.4982H10.5008L10.5008 11.4982ZM2.0008 12.4982C2.0008 11.946 2.44857 11.4982 3.0008 11.4982C3.55302 11.4982 4.0008 11.946 4.0008 12.4982V13.4982H2.0008V12.4982Z" fill="#181818"/>
</g>
<defs>
<clipPath id="clip0_11_130">
<rect width="64" height="64" fill="white"/>
</clipPath>
</defs>
</svg>
