<svg width="64" height="64" viewBox="0 0 64 64" fill="none" xmlns="http://www.w3.org/2000/svg">
<path d="M58.1623 55.2995H56.5707L56.5712 23.4378H58.1627C58.9931 23.4378 59.6761 22.7547 59.6761 21.9244V20.7396C59.6761 20.2034 59.3908 19.6932 58.9149 19.4248L32.7698 4.51512C32.3113 4.26423 31.7407 4.26423 31.2733 4.52361L5.12015 19.4162C4.64425 19.6845 4.3505 20.1858 4.3505 20.7309V21.9157C4.3505 22.7461 5.03354 23.4291 5.86388 23.4291H7.45542V55.2988L5.83805 55.2993C5.00769 55.2993 4.32422 55.9823 4.32422 56.8126V58.1532C4.32422 58.992 5.0077 59.6755 5.83805 59.6755H58.1626C58.993 59.6755 59.676 58.9924 59.676 58.1621V56.8215C59.6765 55.9822 58.993 55.2993 58.1626 55.2993L58.1623 55.2995ZM8.10396 22.1406H5.85573C5.73474 22.1406 5.63966 22.0455 5.63966 21.9245V20.7397C5.63966 20.6621 5.68296 20.5929 5.75216 20.5496L31.9053 5.65584C31.983 5.61254 32.0696 5.61254 32.1388 5.64736L58.2668 20.5491C58.336 20.5924 58.3793 20.6616 58.3793 20.7393V21.9241C58.3793 22.045 58.2842 22.1401 58.1632 22.1401H55.923C55.5685 22.1401 55.2743 22.4343 55.2743 22.7888V55.3076H8.75319V22.7888C8.75319 22.4254 8.45944 22.1401 8.10452 22.1401L8.10396 22.1406ZM58.3794 58.1623C58.3794 58.2833 58.2843 58.3784 58.1633 58.3784L5.83874 58.3788C5.71776 58.3788 5.62268 58.2838 5.62268 58.1628V56.8222C5.62268 56.7012 5.71777 56.6061 5.83874 56.6061H58.1633C58.2843 56.6061 58.3794 56.7012 58.3794 56.8222V58.1623Z" fill="#181818" stroke="#181818" stroke-width="0.7"/>
<path d="M32.0173 18.1623C34.3869 18.1623 36.307 16.2337 36.307 13.8726C36.307 11.5115 34.3784 9.58289 32.0173 9.58289C29.6477 9.58289 27.7275 11.5115 27.7275 13.8726C27.7275 16.2337 29.6477 18.1623 32.0173 18.1623ZM29.0941 14.5213H31.3686V16.7873C30.2355 16.5364 29.3445 15.6543 29.0941 14.5213ZM32.6659 16.7873V14.5213H34.932C34.6811 15.6543 33.79 16.5365 32.6659 16.7873ZM34.9315 13.2239H32.6655V10.9579C33.79 11.2087 34.6811 12.0909 34.9315 13.2239ZM31.3686 10.9583V13.2244H29.0941C29.3445 12.0909 30.2356 11.2087 31.3686 10.9583Z" fill="#181818" stroke="#181818" stroke-width="0.7"/>
<path d="M16.5872 25.1326H18.9743V26.3522C18.9743 27.2344 19.4328 28.0129 20.1247 28.4625V33.7295C20.1247 35.0009 21.1626 36.0299 22.4341 36.0299C23.7055 36.0299 24.7345 35.0009 24.7345 33.7295V32.7697C24.7345 32.2076 25.193 31.7576 25.7466 31.7576C26.3001 31.7576 26.7497 32.2161 26.7497 32.7697V32.8906C26.7497 34.1621 27.7876 35.2 29.0591 35.2C30.3305 35.2 31.3595 34.1621 31.3595 32.8906V32.3197C31.3595 31.7576 31.818 31.3076 32.3716 31.3076C32.9252 31.3076 33.3747 31.7661 33.3747 32.3197V34.3607L33.314 34.3781C32.1636 34.6464 31.3595 35.658 31.3595 36.8343V39.1696C29.8979 39.2647 28.7304 40.4755 28.7304 41.9629V50.2571C28.7304 51.8053 29.993 53.0678 31.5412 53.0678H32.4492C33.9974 53.0678 35.26 51.8053 35.26 50.2571V41.9629C35.26 40.4839 34.1096 39.2816 32.6653 39.1696V36.8343C32.6653 36.3156 32.9854 35.883 33.4524 35.7013C33.6944 36.7133 34.6028 37.4656 35.6836 37.4656C36.955 37.4656 37.993 36.4277 37.993 35.1563V34.6201L46.1314 32.7348C47.2818 32.4665 48.0859 31.4549 48.0859 30.2786V25.8679C48.0859 24.7348 47.1604 23.8094 46.0274 23.8094H45.0412V22.5897C45.0412 21.1972 43.9082 20.0642 42.5157 20.0642H21.4997C20.1073 20.0642 18.9742 21.1972 18.9742 22.5897V23.8094H16.5871C16.2327 23.8094 15.9385 24.1035 15.9385 24.458C15.9385 24.8125 16.2327 25.1326 16.5871 25.1326L16.5872 25.1326ZM33.9632 41.9714V50.2656C33.9632 51.0959 33.2802 51.779 32.4498 51.779H31.5418C30.7114 51.779 30.0284 51.0959 30.0284 50.2656V41.9714C30.0284 41.1411 30.7115 40.458 31.5418 40.458H32.4498C33.2797 40.458 33.9632 41.1411 33.9632 41.9714ZM32.3801 30.0194C31.1087 30.0194 30.0707 31.0574 30.0707 32.3288V32.8998C30.0707 33.4618 29.6212 33.9118 29.0676 33.9118C28.4966 33.9118 28.0556 33.4708 28.0556 32.8998V32.7788C28.0556 31.5074 27.0266 30.4694 25.7551 30.4694C24.4837 30.4694 23.4457 31.5074 23.4457 32.7788L23.4462 33.7297C23.4462 34.2833 22.9966 34.7328 22.4431 34.7328C21.881 34.7328 21.431 34.2832 21.431 33.7297V28.8605C21.4569 28.8605 21.4828 28.869 21.5087 28.869H36.7041V33.6083L34.6809 34.0757V32.3289C34.6809 31.057 33.6515 30.0195 32.38 30.0195L32.3801 30.0194ZM36.6962 35.1739C36.6962 35.7449 36.2552 36.186 35.6842 36.186C35.2083 36.186 34.8279 35.84 34.7244 35.3905L36.6962 34.932L36.6962 35.1739ZM46.0279 25.1329C46.4431 25.1329 46.7891 25.4704 46.7891 25.8941V30.3048C46.7891 30.8758 46.3998 31.3686 45.8377 31.4981L37.9935 33.3142V28.8776H42.5251C43.9176 28.8776 45.0506 27.7446 45.0506 26.3521V25.1325L46.0279 25.1329ZM20.2725 22.616C20.2725 21.9414 20.826 21.3879 21.5006 21.3879H42.5257C43.2003 21.3879 43.7538 21.9415 43.7538 22.616V26.3436C43.7538 27.0182 43.2003 27.5718 42.5257 27.5718H21.5006C20.826 27.5718 20.2725 27.0182 20.2725 26.3436V22.616Z" fill="#181818" stroke="#181818" stroke-width="0.7"/>
</svg>
