<svg width="64" height="64" viewBox="0 0 64 64" fill="none" xmlns="http://www.w3.org/2000/svg">
<g clip-path="url(#clip0_11_99)">
<path d="M16.8655 56.3954C16.6829 56.1548 16.4016 56.0097 16.1003 56.0003C15.7985 55.9901 15.5079 56.1168 15.3101 56.3454L13.1003 58.8856L9.56542 56.8856V56.8852C9.31363 56.7419 9.0123 56.7147 8.73863 56.8106C8.46542 56.9062 8.24711 57.116 8.14041 57.3852L6.84533 60.64L3.79527 59.865V59.8655C3.48054 59.786 3.14661 59.8642 2.90018 60.0753L0.35024 62.2404C0.0118516 62.615 0.00649147 63.1833 0.337294 63.565C0.667648 63.9467 1.23104 64.0217 1.65021 63.7405L3.80998 61.8904L6.56975 62.5904L7.06975 63.3806L7.0702 63.3801C7.37198 63.8382 7.98671 63.9672 8.44745 63.6694C8.90816 63.3721 9.04343 62.7587 8.75013 62.2954L8.50013 61.9003L9.58495 59.1753L12.835 61.0301C13.2488 61.2667 13.7716 61.1792 14.0851 60.8203L16.0003 58.585L19.6904 63.4599C20.0293 63.8805 20.6409 63.9559 21.0717 63.6305C21.5025 63.305 21.5971 62.6961 21.2851 62.2551L16.8655 56.3954Z" fill="#181818"/>
<path d="M64 1C64 1.55223 63.5522 2 63 2C62.4478 2 62 1.55223 62 1C62 0.447771 62.4478 0 63 0C63.5522 0 64 0.447771 64 1Z" fill="#181818"/>
<path d="M57.9999 8.99989C58.7955 8.99989 59.5589 8.68382 60.1213 8.12131C60.6837 7.55881 60.9999 6.79537 60.9999 5.99994C60.9999 5.20451 60.6838 4.44097 60.1213 3.87857C59.5588 3.31617 58.7954 3 57.9999 3C57.2045 3 56.441 3.31607 55.8786 3.87857C55.3162 4.44107 55 5.20451 55 5.99994C55 6.79537 55.3161 7.55891 55.8786 8.12131C56.4411 8.68371 57.2045 8.99989 57.9999 8.99989ZM57.9999 4.99989C58.4044 4.99989 58.7691 5.24363 58.9236 5.61729C59.0785 5.99095 58.9932 6.42086 58.7071 6.70703C58.4209 6.9932 57.991 7.07846 57.6173 6.92354C57.2437 6.76907 56.9999 6.40434 56.9999 5.99989C56.9999 5.44766 57.4477 4.99989 57.9999 4.99989Z" fill="#181818"/>
<path d="M2 1C2 1.55223 1.55223 2 1 2C0.447771 2 0 1.55223 0 1C0 0.447771 0.447771 0 1 0C1.55223 0 2 0.447771 2 1Z" fill="#181818"/>
<path d="M5.99994 8.99989C6.79547 8.99989 7.55891 8.68382 8.12131 8.12131C8.68371 7.55881 8.99989 6.79537 8.99989 5.99994C8.99989 5.20451 8.68382 4.44097 8.12131 3.87857C7.55881 3.31617 6.79537 3 5.99994 3C5.20451 3 4.44097 3.31607 3.87857 3.87857C3.31617 4.44107 3 5.20451 3 5.99994C3 6.79537 3.31607 7.55891 3.87857 8.12131C4.44107 8.68371 5.20451 8.99989 5.99994 8.99989ZM5.99994 4.99989C6.40441 4.99989 6.76914 5.24363 6.9236 5.61729C7.07851 5.99095 6.99324 6.42086 6.70709 6.70703C6.42093 6.9932 5.99102 7.07846 5.61735 6.92354C5.24369 6.76907 4.99994 6.40434 4.99994 5.99989C4.99994 5.44766 5.44771 4.99989 5.99994 4.99989Z" fill="#181818"/>
<path d="M8 46.5005C8 47.0527 7.55223 47.5005 7 47.5005C6.44777 47.5005 6 47.0527 6 46.5005C6 45.9483 6.44777 45.5005 7 45.5005C7.55223 45.5005 8 45.9483 8 46.5005Z" fill="#181818"/>
<path d="M12 46.5005C12 47.0527 11.5522 47.5005 11 47.5005C10.4478 47.5005 10 47.0527 10 46.5005C10 45.9483 10.4478 45.5005 11 45.5005C11.5522 45.5005 12 45.9483 12 46.5005Z" fill="#181818"/>
<path d="M16 46.5005C16 47.0527 15.5522 47.5005 15 47.5005C14.4478 47.5005 14 47.0527 14 46.5005C14 45.9483 14.4478 45.5005 15 45.5005C15.5522 45.5005 16 45.9483 16 46.5005Z" fill="#181818"/>
<path d="M20 46.5005C20 47.0527 19.5522 47.5005 19 47.5005C18.4478 47.5005 18 47.0527 18 46.5005C18 45.9483 18.4478 45.5005 19 45.5005C19.5522 45.5005 20 45.9483 20 46.5005Z" fill="#181818"/>
<path d="M24 46.5005C24 47.0527 23.5522 47.5005 23 47.5005C22.4478 47.5005 22 47.0527 22 46.5005C22 45.9483 22.4478 45.5005 23 45.5005C23.5522 45.5005 24 45.9483 24 46.5005Z" fill="#181818"/>
<path d="M28 46.5005C28 47.0527 27.5522 47.5005 27 47.5005C26.4478 47.5005 26 47.0527 26 46.5005C26 45.9483 26.4478 45.5005 27 45.5005C27.5522 45.5005 28 45.9483 28 46.5005Z" fill="#181818"/>
<path d="M61.0993 60.0548C60.8529 59.8437 60.5189 59.7656 60.2042 59.845L57.1541 60.62L55.8591 57.3652C55.6573 56.8571 55.085 56.6054 54.5743 56.8L51.4194 58L49.6292 56.2799C49.4386 56.091 49.1779 55.9897 48.9091 56C48.6408 56.0076 48.3868 56.1232 48.2042 56.3201L44.7042 60.0901L46.264 52.2999H46.2644C46.4336 51.9946 46.5162 51.6491 46.5042 51.2999V40.9999C47.0345 40.9999 47.5435 40.7892 47.9185 40.4142C48.2935 40.0392 48.5042 39.5303 48.5042 38.9999V36.9999C48.5028 36.5575 48.3546 36.1285 48.0836 35.7789C47.8122 35.4298 47.4323 35.1803 47.0042 35.07V5.00027C47.0042 3.67353 46.477 2.40073 45.5381 1.46279C44.5993 0.525288 43.3261 -0.00110062 41.9993 0.000270805H32.1492C31.6206 -0.00196131 31.101 0.135985 30.6425 0.399379C30.184 0.662774 29.8036 1.04224 29.5394 1.50027L24.5394 10.9155L21.4291 10.5003C20.9059 10.5025 20.4059 10.7164 20.042 11.0932C19.6786 11.4699 19.4831 11.9771 19.4991 12.5002V15.0002H11.5589C10.8919 14.9842 10.2455 15.2355 9.76472 15.6985C9.28392 16.1618 9.00847 16.7976 8.9991 17.4654V21.0003H1.9991C1.10401 21.0003 -0.000901576 21.8704 -0.000901576 22.7753V36.3604C-0.0035802 36.793 0.165612 37.2086 0.469635 37.5162C0.773201 37.8238 1.18659 37.9979 1.61923 38.0006H18.9987V40.5006H6.49809C2.89809 40.5006 -0.00190778 43.1854 -0.00190778 46.5006C0.00702079 47.9996 0.603007 49.4359 1.65786 50.5006H0.998047C0.445818 50.5006 -0.00195312 50.9483 -0.00195312 51.5006C-0.00195312 52.0528 0.445818 52.5006 0.998047 52.5006H27.4986C31.0736 52.5006 33.9986 49.8158 33.9986 46.5006C33.9986 43.1854 31.0986 40.5006 27.4986 40.5006H25.9986V38.0006H32.3785C32.8111 37.9979 33.2245 37.8238 33.5281 37.5162C33.8321 37.2086 34.0013 36.793 33.9986 36.3604V14.0004C33.9991 13.487 33.8022 12.9928 33.4486 12.6205C33.0951 12.2482 32.6116 12.0263 32.0987 12.0004L34.5987 7.00042H38.9987C39.2639 7.00042 39.5183 7.10578 39.7058 7.29328C39.8933 7.48078 39.9987 7.73524 39.9987 8.00042V35.0656C39.5697 35.1763 39.1893 35.4263 38.9179 35.7767C38.6465 36.1267 38.4991 36.5571 38.4987 37.0004V39.0004C38.4987 39.5307 38.7094 40.0397 39.0844 40.4147C39.4594 40.7897 39.9683 41.0004 40.4987 41.0004V51.3254C40.4866 51.6745 40.5697 52.0201 40.7389 52.3254L42.2987 60.1156L38.7987 56.3455C38.6161 56.1487 38.362 56.033 38.0937 56.0254C37.825 56.0143 37.5643 56.1161 37.3736 56.3054L35.5835 58.0004L32.4286 56.8004C31.9179 56.6058 31.3456 56.8576 31.1438 57.3656L29.8487 60.6205L26.7987 59.8455C26.4839 59.766 26.1505 59.8441 25.9036 60.0553L23.3536 62.2455C23.0157 62.6205 23.0099 63.1883 23.3407 63.57C23.6715 63.9517 24.2345 64.0267 24.6536 63.7455L26.8134 61.8954L29.5732 62.5954L30.0732 63.3856L30.0736 63.3852C30.3758 63.8432 30.9901 63.9722 31.4509 63.6749C31.9116 63.3771 32.0468 62.7642 31.7535 62.3004L31.4986 61.9004L32.6388 59.0004L35.4638 60.0754C35.8259 60.2133 36.2348 60.1294 36.5138 59.8602L38.0138 58.4054L42.7541 63.5152L42.784 63.5402V63.5652L42.834 63.6L42.9188 63.6652L43.0036 63.7152L43.0938 63.7554L43.1889 63.7853H43.7545L43.8393 63.7554L43.9344 63.7103L44.0143 63.6652L44.0991 63.6L44.1492 63.5652V63.5402L44.1791 63.5152L48.9193 58.4054L50.4193 59.8602H50.4188C50.6974 60.1294 51.1068 60.2133 51.4688 60.0754L54.2939 59.0004L55.4988 61.9004L55.2287 62.3156C54.9358 62.779 55.0707 63.3924 55.5314 63.6896C55.9921 63.9874 56.6068 63.8584 56.9086 63.4003L57.4086 62.6102L60.1684 61.9102L62.3282 63.7602H62.3286C62.7478 64.0419 63.3112 63.9665 63.642 63.5852C63.9723 63.2035 63.967 62.6352 63.6286 62.2602L61.0993 60.0548ZM44.0787 53L43.4988 55.9L42.9189 53H44.0787ZM40.4988 39V37H46.4988V39H40.4988ZM10.9994 17.4651C11.0079 17.3276 11.0731 17.1995 11.1789 17.1116C11.2851 17.0236 11.4226 16.983 11.5592 16.9999H19.4995V20.9999H10.9995L10.9994 17.4651ZM20.9994 38H23.9994V40.5H20.9994V38ZM27.4994 42.5C29.9695 42.5 31.9994 44.2951 31.9994 46.5C31.9994 48.7049 29.9994 50.5 27.4994 50.5H6.49941C3.99941 50.5 1.99941 48.7049 1.99941 46.5C1.99941 44.2951 3.99941 42.5 6.49941 42.5H27.4994ZM1.99998 36V23.04L2.07007 22.9998H21.4998V12.5298L31.7199 13.9998H31.9998V28.9998H12.9998C12.4476 28.9998 11.9998 29.4476 11.9998 29.9998C11.9998 30.552 12.4476 30.9998 12.9998 30.9998H31.9998V35.9998L1.99998 36ZM39 4.99999H34.5799C34.2285 4.99954 33.883 5.0915 33.5781 5.26739C33.2736 5.44284 33.0209 5.69552 32.845 5.99999L29.9999 11.7201L26.62 11.2201L31.2847 2.49999C31.4633 2.19106 31.7932 2.00043 32.1499 1.99999H41.9999C42.7955 1.99999 43.5589 2.31605 44.1213 2.87856C44.6837 3.44106 44.9999 4.2045 44.9999 4.99993V34.9999H41.9999V7.99993C41.9999 7.2044 41.6838 6.44096 41.1213 5.87856C40.5588 5.31616 39.7954 4.99999 38.9999 4.99999H39ZM44.5 41V50H42.5V41H44.5Z" fill="#181818"/>
<path d="M52.1655 55.4995C52.4012 55.5 52.6298 55.4165 52.8101 55.2647L54.145 54.1397H54.1454C54.5678 53.7835 54.6218 53.1522 54.2655 52.7294C53.9093 52.3071 53.278 52.2531 52.8553 52.6093L51.5004 53.7343C51.179 54.0053 51.0611 54.4482 51.2053 54.8428C51.3495 55.2375 51.725 55.5 52.1455 55.4995L52.1655 55.4995Z" fill="#181818"/>
<path d="M48.5 53.375C48.5 53.9272 48.9478 54.3749 49.5 54.3749C50.0522 54.3749 50.5 53.9272 50.5 53.375V51.5C50.5 50.9478 50.0522 50.5 49.5 50.5C48.9478 50.5 48.5 50.9478 48.5 51.5V53.375Z" fill="#181818"/>
<path d="M34.8341 55.4994C35.2582 55.5083 35.6416 55.2489 35.7912 54.852C35.9408 54.4551 35.8238 54.0074 35.4992 53.7342L34.1644 52.6092C33.9613 52.4382 33.6988 52.3547 33.4345 52.3775C33.1697 52.3998 32.9251 52.5266 32.7541 52.7293C32.3979 53.152 32.4519 53.7833 32.8742 54.1395L34.2091 55.2646C34.3845 55.4119 34.605 55.4949 34.8341 55.4994L34.8341 55.4994Z" fill="#181818"/>
<path d="M38.5 53.375V51.5C38.5 50.9478 38.0522 50.5 37.5 50.5C36.9478 50.5 36.5 50.9478 36.5 51.5V53.375C36.5 53.9272 36.9478 54.3749 37.5 54.3749C38.0522 54.3749 38.5 53.9272 38.5 53.375Z" fill="#181818"/>
<path d="M26 22C26.2652 22 26.5196 21.8946 26.7071 21.7071C26.8946 21.5196 27 21.2652 27 21V19C27 18.4478 26.5522 18 26 18C25.4478 18 25 18.4478 25 19V21C25 21.2652 25.1054 21.5196 25.2929 21.7071C25.4804 21.8946 25.7348 22 26 22Z" fill="#181818"/>
<path d="M10 30C10 30.5522 9.55223 31 9 31C8.44777 31 8 30.5522 8 30C8 29.4478 8.44777 29 9 29C9.55223 29 10 29.4478 10 30Z" fill="#181818"/>
</g>
<defs>
<clipPath id="clip0_11_99">
<rect width="64" height="64" fill="white"/>
</clipPath>
</defs>
</svg>
