<svg width="65" height="65" viewBox="0 0 65 65" fill="none" xmlns="http://www.w3.org/2000/svg">
<path d="M61.8665 3.20001C61.8647 1.43349 60.433 0.00182858 58.6665 0H56.5335C54.767 0.00178572 53.3353 1.43349 53.3335 3.20001C52.3094 3.20179 51.4308 3.93081 51.2402 4.93704L41.3214 14.8553C40.7031 15.4768 40.5286 16.4134 40.8808 17.2165L32.1281 25.9687L23.1866 17.0277C23.4406 16.2656 23.2442 15.4251 22.6781 14.8549L12.7598 4.93704C12.5692 3.93079 11.6906 3.20172 10.6665 3.20001C10.6648 1.43349 9.23305 0.00182858 7.46653 0H5.3335C3.56698 0.00178572 2.13532 1.43349 2.13349 3.20001C0.955774 3.20135 0.00137143 4.15582 0 5.3335V17.0661C0.00133932 18.2438 0.955808 19.1982 2.13349 19.1996V44.7996C0.955774 44.801 0.00137143 45.7555 0 46.9331V58.6657C0.00133932 59.8434 0.955808 60.7979 2.13349 60.7992C2.13528 62.5657 3.56698 63.9974 5.3335 63.9992H7.46653C9.23305 63.9974 10.6647 62.5657 10.6665 60.7992C11.6906 60.7974 12.5692 60.0684 12.7598 59.0622L22.6786 49.1439C23.2442 48.5738 23.4406 47.7336 23.1866 46.9715L32.1281 38.0305L40.8808 46.7827C40.5286 47.5859 40.7036 48.523 41.3219 49.1443L51.2402 59.0622C51.4308 60.0685 52.3094 60.7975 53.3335 60.7992C53.3353 62.5657 54.767 63.9974 56.5335 63.9992H58.6665C60.433 63.9974 61.8647 62.5657 61.8665 60.7992C63.0442 60.7979 63.9986 59.8434 64 58.6657V46.9331C63.9987 45.7554 63.0442 44.801 61.8665 44.7996V19.1996C63.0442 19.1982 63.9986 18.2438 64 17.0661V5.3335C63.9987 4.15578 63.0442 3.20138 61.8665 3.20001ZM56.5335 2.13349H58.6665C59.2553 2.13394 59.7326 2.61117 59.7335 3.20001H55.4665C55.4674 2.61117 55.9446 2.13394 56.5334 2.13349H56.5335ZM53.3335 44.7999C52.9799 44.8021 52.6326 44.8936 52.3236 45.0655L48.8585 41.6003C48.4594 41.199 47.9165 40.974 47.3505 40.9758H47.3492C47.2831 40.9758 47.2197 40.9892 47.1545 40.995L38.1589 31.9999L47.1545 23.0048C47.2197 23.0106 47.2831 23.024 47.3492 23.024H47.3505C47.9166 23.0258 48.4594 22.8008 48.8585 22.3994L52.3236 18.9343C52.6326 19.1062 52.9799 19.1977 53.3335 19.1999V44.7999ZM42.2812 45.1673L32.8821 35.7686C32.6821 35.5686 32.4111 35.4561 32.1281 35.4561C31.845 35.4561 31.5741 35.5686 31.3741 35.7686L21.8464 45.2954L18.8352 42.2788L28.3593 32.7538C28.5593 32.5538 28.6718 32.2828 28.6718 31.9997C28.6718 31.7167 28.5593 31.4457 28.3593 31.2457L18.8352 21.7207L21.8464 18.7041L31.3741 28.2309C31.5741 28.4309 31.845 28.5434 32.1281 28.5434C32.4111 28.5434 32.6821 28.4309 32.8821 28.2309L42.2812 18.8322L45.2932 21.8491L35.8963 31.2456C35.6963 31.4456 35.5838 31.7166 35.5838 31.9996C35.5838 32.2827 35.6963 32.5537 35.8963 32.7537L45.2932 42.1501L42.2812 45.1673ZM11.6766 45.0655C11.3676 44.8936 11.0203 44.8021 10.6667 44.7999V19.1998C11.0203 19.1976 11.3676 19.1061 11.6766 18.9342L15.1417 22.3993C15.5408 22.8007 16.0837 23.0257 16.6497 23.0239H16.6511C16.7948 23.0234 16.9377 23.0092 17.0783 22.9806L26.0971 31.9998L17.0783 41.019C16.9377 40.9905 16.7948 40.9762 16.6511 40.9757H16.6497C16.0837 40.9739 15.5408 41.1989 15.1417 41.6003L11.6766 45.0655ZM51.2001 7.99341V17.0407L47.35 20.8904L43.0397 16.5725L43.037 16.5685L43.033 16.5658L42.8304 16.3627L51.2001 7.99341ZM21.0949 16.4381L21.0913 16.4403L21.0891 16.4439L16.6502 20.8908L12.8001 17.0407V7.99339L21.1698 16.3625L21.0949 16.4381ZM5.33369 2.13294H7.46673C8.05556 2.13339 8.5328 2.61062 8.53369 3.19946H4.26671C4.2676 2.61062 4.74483 2.13339 5.33367 2.13294H5.33369ZM2.13369 5.33295H10.6667V5.41821L10.6685 17.0662H2.13364L2.13369 5.33295ZM4.26672 19.1993H8.5337V44.7993H4.26672V19.1993ZM7.46673 61.8656H5.33369C4.74486 61.8652 4.26762 61.388 4.26673 60.7991H8.53371C8.53282 61.388 8.05559 61.8652 7.46675 61.8656H7.46673ZM10.6667 58.6656H2.13369V46.933H10.6667V58.6656ZM12.8002 56.0054V46.9581L16.6503 43.1085L21.0892 47.5549L21.0914 47.5584L21.095 47.5607L21.17 47.6361L12.8002 56.0054ZM43.0334 47.433L43.0379 47.4304L43.0406 47.4259L47.3509 43.1081L51.2009 46.9581V56.0055L42.8313 47.6363L43.0334 47.433ZM58.6678 61.8662H56.5347C55.9459 61.8658 55.4687 61.3885 55.4678 60.7997H59.7348C59.7339 61.3885 59.2566 61.8658 58.6678 61.8662H58.6678ZM61.8678 58.6662H53.3347V58.5809L53.3329 46.9329H61.8678L61.8678 58.6662ZM59.7347 44.7999H55.4678V19.1998H59.7347V44.7999ZM61.8678 17.0661H53.3347V5.33352H61.8678V17.0661Z" fill="#181818"/>
</svg>
