<svg width="64" height="64" viewBox="0 0 64 64" fill="none" xmlns="http://www.w3.org/2000/svg">
<g clip-path="url(#clip0_11_119)">
<path d="M24.0001 15H40.0001C40.5523 15 41.0001 14.5522 41.0001 14C41.0001 13.4478 40.5523 13 40.0001 13H24.0001C23.4479 13 23.0001 13.4478 23.0001 14C23.0001 14.5522 23.4479 15 24.0001 15Z" fill="#181818"/>
<path d="M24.0001 19H35.0001C35.5523 19 36.0001 18.5522 36.0001 18C36.0001 17.4478 35.5523 17 35.0001 17H24.0001C23.4479 17 23.0001 17.4478 23.0001 18C23.0001 18.5522 23.4479 19 24.0001 19Z" fill="#181818"/>
<path d="M24.0001 25H40.0001C40.5523 25 41.0001 24.5522 41.0001 24C41.0001 23.4478 40.5523 23 40.0001 23H24.0001C23.4479 23 23.0001 23.4478 23.0001 24C23.0001 24.5522 23.4479 25 24.0001 25Z" fill="#181818"/>
<path d="M22.854 43.4948C23.2344 43.1135 23.4875 42.6238 23.579 42.093C23.6701 41.5622 23.5951 41.0157 23.3639 40.5291C23.5152 40.2152 23.6487 39.8929 23.7639 39.5643C24.2714 39.3835 24.7107 39.0505 25.0215 38.6108C25.3322 38.1706 25.4996 37.6456 25.5 37.1068V35.8925C25.4996 35.3536 25.3322 34.8286 25.0215 34.3885C24.7107 33.9487 24.2715 33.6157 23.7639 33.4349C23.6487 33.1063 23.5152 32.784 23.3639 32.4702C23.5951 31.9836 23.6701 31.4371 23.579 30.9063C23.4875 30.3755 23.2344 29.8857 22.854 29.504L21.9951 28.6455C21.6139 28.2647 21.1241 28.0111 20.5928 27.9196C20.0616 27.8285 19.5151 27.9035 19.0281 28.1348C18.7147 27.9839 18.3929 27.8509 18.0647 27.7357C17.8839 27.2281 17.5509 26.7888 17.1112 26.4781C16.671 26.1674 16.146 26 15.6072 25.9995H14.3929C13.854 26 13.329 26.1674 12.8889 26.4781C12.4491 26.7888 12.1161 27.2281 11.9353 27.7357C11.6072 27.8509 11.2853 27.9839 10.9719 28.1348C10.4848 27.9035 9.93841 27.8285 9.40721 27.9196C8.87597 28.0111 8.38623 28.2647 8.00493 28.6455L7.146 29.5044C6.76565 29.8857 6.51251 30.3754 6.42099 30.9063C6.32992 31.4371 6.40492 31.9835 6.63617 32.4702C6.48483 32.784 6.35135 33.1063 6.23617 33.4349C5.72858 33.6157 5.28929 33.9487 4.97857 34.3885C4.66785 34.8286 4.50045 35.3536 4.5 35.8925V37.1067C4.50045 37.6456 4.66786 38.1706 4.97857 38.6107C5.28929 39.0505 5.72857 39.3835 6.23617 39.5643C6.35135 39.8929 6.48483 40.2152 6.63617 40.5291C6.40493 41.0157 6.32992 41.5621 6.42099 42.0929C6.51251 42.6237 6.76563 43.1135 7.146 43.4948L8.00493 44.3537C8.38617 44.7345 8.87591 44.9881 9.40721 45.0796C9.93846 45.1707 10.4849 45.0957 10.9719 44.8644C11.2853 45.0153 11.6072 45.1483 11.9353 45.2635C12.1161 45.7711 12.4491 46.2104 12.8889 46.5211C13.3291 46.8318 13.854 46.9992 14.3929 46.9997H15.6072C16.146 46.9992 16.671 46.8318 17.1112 46.5211C17.5509 46.2104 17.8839 45.7711 18.0647 45.2635C18.3929 45.1483 18.7147 45.0153 19.0281 44.8644C19.5152 45.0957 20.0616 45.1707 20.5928 45.0796C21.1241 44.9881 21.6138 44.7345 21.9951 44.3537L22.854 43.4948ZM21.4397 42.0805L20.5813 42.939V42.9394C20.4674 43.0533 20.3129 43.1171 20.1518 43.1171C19.9906 43.1171 19.8362 43.0533 19.7223 42.9394L19.2201 42.4367C18.3255 43.0747 17.2978 43.5006 16.2143 43.6827V44.3925C16.2143 44.7278 15.9424 44.9997 15.6071 44.9997H14.3928C14.0576 44.9997 13.7857 44.7278 13.7857 44.3925V43.6827C12.7022 43.5005 11.6745 43.0747 10.7799 42.4367L10.2772 42.9394H10.2776C10.1638 43.0533 10.0093 43.1171 9.84818 43.1171C9.68703 43.1171 9.53256 43.0533 9.41872 42.9394L8.56024 42.0809C8.32319 41.8434 8.32319 41.4591 8.56024 41.222L9.06291 40.7198C8.42497 39.8251 7.99908 38.7975 7.81697 37.714H7.10716C6.94599 37.714 6.79153 37.6501 6.67769 37.5363C6.56385 37.4224 6.50001 37.268 6.50001 37.1068V35.8925C6.50001 35.7314 6.56385 35.5769 6.67769 35.4631C6.79153 35.3492 6.946 35.2854 7.10716 35.2854H7.81697C7.99912 34.2019 8.42501 33.1742 9.06291 32.2796L8.56024 31.7769V31.7773C8.32319 31.5403 8.32319 31.1555 8.56024 30.9184L9.41872 30.0599C9.53256 29.9461 9.68703 29.8822 9.84818 29.8822C10.0093 29.8822 10.1638 29.9461 10.2776 30.0599L10.7799 30.5626C11.6745 29.9247 12.7022 29.4988 13.7857 29.3167V28.6068C13.7857 28.2716 14.0576 27.9997 14.3928 27.9997H15.6071C15.9424 27.9997 16.2143 28.2716 16.2143 28.6068V29.3167C17.2978 29.4988 18.3255 29.9247 19.2201 30.5626L19.7228 30.0599H19.7223C19.8362 29.9461 19.9906 29.8822 20.1518 29.8822C20.3129 29.8822 20.4674 29.9461 20.5813 30.0599L21.4397 30.9184C21.6768 31.1555 21.6768 31.5403 21.4397 31.7773L20.9371 32.2796C21.575 33.1742 22.0009 34.2018 22.183 35.2854H22.8928C23.054 35.2854 23.2084 35.3492 23.3223 35.4631C23.4361 35.5769 23.5 35.7314 23.5 35.8925V37.1068C23.5 37.268 23.4361 37.4224 23.3223 37.5363C23.2084 37.6501 23.054 37.714 22.8928 37.714H22.183C22.0009 38.7974 21.575 39.8252 20.9371 40.7198L21.4397 41.222C21.6768 41.4591 21.6768 41.8434 21.4397 42.0809V42.0805Z" fill="#181818"/>
<path d="M15.0001 32C13.8069 32 12.6622 32.4741 11.818 33.3178C10.9742 34.162 10.5001 35.3066 10.5001 36.5C10.5001 37.6934 10.9742 38.8379 11.818 39.6822C12.6621 40.5259 13.8067 41 15.0001 41C16.1935 41 17.3381 40.5259 18.1823 39.6822C19.026 38.838 19.5001 37.6934 19.5001 36.5C19.4988 35.3071 19.0242 34.163 18.1805 33.3197C17.3372 32.4759 16.1929 32.0014 15.0001 32ZM15.0001 39C14.3372 39 13.701 38.7366 13.2322 38.2679C12.7634 37.7991 12.5001 37.1629 12.5001 36.5C12.5001 35.837 12.7635 35.2009 13.2322 34.7321C13.701 34.2633 14.3371 34 15.0001 34C15.6631 34 16.2992 34.2633 16.768 34.7321C17.2368 35.2008 17.5001 35.837 17.5001 36.5C17.4992 37.1629 17.2359 37.7981 16.7671 38.2669C16.2983 38.7357 15.6631 38.9991 15.0001 39L15.0001 39Z" fill="#181818"/>
<path d="M61.0001 17.0001H53.0001V15.9166C52.9987 15.8702 52.9938 15.8242 52.9862 15.7787C52.984 15.7622 52.9844 15.7452 52.9813 15.7287C52.9666 15.6532 52.9434 15.5796 52.9117 15.5095C52.9099 15.5055 52.9099 15.5014 52.9081 15.4979L50.0001 9.19695V8.00003C49.9992 7.2045 49.6827 6.44198 49.1206 5.87946C48.5581 5.31741 47.7956 5.00089 47.0001 5H17.0001C16.2045 5.00089 15.442 5.31741 14.8795 5.87946C14.3174 6.44197 14.0009 7.20449 14 8.00003V17H3.00003C2.2045 17.0009 1.44198 17.3174 0.879463 17.8795C0.317405 18.442 0.000891429 19.2045 0 20.0001V52.0001C0.0008928 52.7956 0.317405 53.5581 0.879463 54.1206C1.44197 54.6827 2.20449 54.9992 3.00003 55.0001H31V57.0001H23C22.4478 57.0001 22 57.4479 22 58.0001C22 58.5523 22.4478 59.0001 23 59.0001H41C41.5523 59.0001 42 58.5523 42 58.0001C42 57.4479 41.5523 57.0001 41 57.0001H33V55.0001H61C61.7956 54.9992 62.5581 54.6827 63.1206 54.1206C63.6827 53.5581 63.9992 52.7956 64.0001 52.0001V20.0001C63.9992 19.2045 63.6827 18.442 63.1206 17.8795C62.5581 17.3174 61.7956 17.0009 61 17L61.0001 17.0001ZM47.0001 37.4161V16.9155H51.0001V37.4161H47.0001ZM51.0001 39.4161V42.4995H47.0001V39.4161H51.0001ZM50.4371 14.9155H47.5631L49.0001 11.8017L50.4371 14.9155ZM62.0006 51.999C62.0001 52.5512 61.5528 52.9985 61.0006 52.999H3.00055C2.44832 52.9985 2.00099 52.5512 2.00055 51.999V50.999H62.0006V51.999ZM62.0006 48.999H2.00055V19.999C2.00099 19.4467 2.44832 18.9994 3.00055 18.999H14.0005V24.0231C14.1309 24.0119 14.2613 23.999 14.3934 23.999H15.6072C15.7398 23.999 15.8697 24.0119 16.0001 24.0231L16.0005 7.99907C16.001 7.44684 16.4483 6.99952 17.0005 6.99907H47.0005C47.5528 6.99952 48.0001 7.44684 48.0005 7.99907V9.19598L45.0925 15.4969C45.0908 15.5009 45.0908 15.5049 45.089 15.5085C45.0573 15.5786 45.0341 15.6523 45.0193 15.7277C45.0162 15.7442 45.0166 15.7612 45.0144 15.7777C45.0068 15.8232 45.0019 15.8692 45.0006 15.9156V42.4996C45.001 43.03 45.2122 43.5385 45.5872 43.913C45.9617 44.288 46.4702 44.4992 47.0005 44.4996H47.8613C47.684 44.8081 47.3563 44.9983 47.0005 44.9996H24.1777L23.4089 45.7684H23.4085C22.7955 46.3822 22.0205 46.8095 21.1741 46.9996H47.0004C47.7089 46.9982 48.3936 46.7469 48.9343 46.2893C49.4754 45.8317 49.8365 45.1978 49.9553 44.4996H51.0004C51.5307 44.4992 52.0392 44.288 52.4138 43.913C52.7888 43.5384 52.9999 43.03 53.0004 42.4996V19.0002H61.0004C61.5526 19.0006 61.9999 19.448 62.0004 20.0002L62.0006 48.999Z" fill="#181818"/>
<path d="M36.0004 28C36.0004 27.4478 35.5526 27 35.0004 27H24.0004C23.7785 27.0009 23.5638 27.0759 23.3896 27.2134C23.3959 27.2196 23.403 27.225 23.4093 27.2313L24.2696 28.0915V28.0911C24.5405 28.3634 24.7767 28.6687 24.9713 29H35.0004C35.5526 29 36.0004 28.5522 36.0004 28L36.0004 28Z" fill="#181818"/>
<path d="M40.0003 33H26.4678C26.9374 33.5808 27.2593 34.2674 27.4048 35H40.0003C40.5525 35 41.0003 34.5522 41.0003 34C41.0003 33.4478 40.5525 33 40.0003 33H40.0003Z" fill="#181818"/>
<path d="M35.0004 37.0001H27.5004V37.1072C27.4982 37.7608 27.3558 38.4058 27.083 39H35.0004C35.5526 39 36.0004 38.5522 36.0004 38C36.0004 37.4478 35.5526 37 35.0004 37L35.0004 37.0001Z" fill="#181818"/>
</g>
<defs>
<clipPath id="clip0_11_119">
<rect width="64" height="64" fill="white"/>
</clipPath>
</defs>
</svg>
