<svg width="64" height="64" viewBox="0 0 64 64" fill="none" xmlns="http://www.w3.org/2000/svg">
<path d="M56 16C56.6 16 57 15.6 57 15C57 14.4 56.6 14 56 14H45V8C45 7.4 44.6 7 44 7C43.4 7 43 7.4 43 8V14H33V8C33 7.4 32.6 7 32 7C31.4 7 31 7.4 31 8V14H21V8C21 7.4 20.6 7 20 7C19.4 7 19 7.4 19 8V14H8C7.4 14 7 14.4 7 15C7 15.6 7.4 16 8 16H19V21H8C7.4 21 7 21.4 7 22C7 22.6 7.4 23 8 23H19V31H13C9.7 31 7 33.7 7 37V56C7 56.6 7.4 57 8 57H56C56.6 57 57 56.6 57 56V47C57 43.7 54.3 41 51 41H45V23H56C56.6 23 57 22.6 57 22C57 21.4 56.6 21 56 21H45V16H56ZM21 16H31V21H21V16ZM21 23H31V32.5C29.9 31.5 28.5 31 27 31H21V23ZM55 47V55H9V37C9 34.8 10.8 33 13 33H27C29.2 33 31 34.8 31 37C31 40.3 33.7 43 37 43H51C53.2 43 55 44.8 55 47ZM43 41H37C34.8 41 33 39.2 33 37V23H43V41ZM43 21H33V16H43V21Z" fill="#181818"/>
<path d="M14.3996 48.2994C14.1996 48.4994 14.0996 48.6994 14.0996 48.9994V49.1994C14.0996 49.2994 14.0996 49.2994 14.1996 49.3994C14.1996 49.4994 14.2996 49.4994 14.2996 49.5994C14.2996 49.6994 14.3996 49.6994 14.3996 49.7994C14.5996 49.9994 14.7996 50.0994 15.0996 50.0994C15.3996 50.0994 15.5996 49.9994 15.7996 49.7994C15.7996 49.6994 15.8996 49.6994 15.8996 49.5994C15.8996 49.5994 15.9996 49.4994 15.9996 49.3994V49.1994V48.9994C15.9996 48.6994 15.8996 48.4994 15.6996 48.2994C15.4996 47.8994 14.7996 47.8994 14.3996 48.2994Z" fill="#181818"/>
<path d="M23.5996 48C22.9996 48 22.5996 48.4 22.5996 49C22.5996 49.5 22.9996 50 23.5996 50C24.1996 50 24.5996 49.5 24.5996 49C24.5996 48.4 24.1996 48 23.5996 48Z" fill="#181818"/>
<path d="M40.5996 48C39.9996 48 39.5996 48.4 39.5996 49C39.5996 49.5 39.9996 50 40.5996 50C41.1996 50 41.5996 49.5 41.5996 49C41.5996 48.4 41.1996 48 40.5996 48Z" fill="#181818"/>
<path d="M32.1006 48C31.5006 48 31.1006 48.4 31.1006 49C31.1006 49.5 31.5006 50 32.1006 50C32.6006 50 33.1006 49.5 33.1006 49C33.1006 48.4 32.7006 48 32.1006 48Z" fill="#181818"/>
<path d="M48.6002 49.8C48.7002 49.8 48.7002 49.9 48.8002 49.9C48.9002 49.9 48.9002 49.9 49.0002 50H49.2002H49.4002C49.5002 50 49.5002 50 49.6002 49.9C49.7002 49.9 49.7002 49.8 49.8002 49.8C49.8002 49.8 49.9002 49.7 50.0002 49.7C50.2002 49.5 50.3002 49.2 50.3002 49C50.3002 48.9 50.3002 48.7 50.2002 48.6C50.2002 48.5 50.1002 48.4 50.0002 48.3C50.0002 48.3 49.9002 48.2 49.8002 48.2C49.8002 48.2 49.7002 48.1 49.6002 48.1C49.5002 48.1 49.5002 48.1 49.4002 48H49.0002C48.9002 48 48.9002 48 48.8002 48.1C48.7002 48.1 48.7002 48.2 48.6002 48.2C48.5002 48.2 48.5002 48.3 48.5002 48.3C48.4002 48.4 48.3002 48.5 48.3002 48.6C48.2002 48.7 48.2002 48.9 48.2002 49C48.2002 49.3 48.3002 49.5 48.5002 49.7C48.5002 49.8 48.5002 49.8 48.6002 49.8Z" fill="#181818"/>
</svg>
