<svg width="64" height="64" viewBox="0 0 64 64" fill="none" xmlns="http://www.w3.org/2000/svg">
<path d="M52.9264 57.9349L50.7367 50.1379L50.7684 50.1299C51.0291 50.0634 51.2519 49.8942 51.3867 49.6612C51.5215 49.4277 51.5554 49.15 51.4836 48.8906L47.6465 35.2278C47.1983 33.6327 45.4903 32.676 43.8693 33.0943L40.2746 33.9121L36.0866 30.2479C36.0607 30.2251 36.0273 30.2153 35.9996 30.1957V27.0001C35.9996 26.4479 35.5523 26.0001 34.9996 26.0001V22.0001H35.9996C36.5523 22.0001 36.9996 21.5523 36.9996 21.0001H39.9996C40.5523 21.0001 40.9996 20.5523 40.9996 20.0001V14.0001C40.9996 13.4479 40.5523 13.0001 39.9996 13.0001H36.9996V11.0001C36.9996 10.4479 36.5523 10.0001 35.9996 10.0001H34.8152C34.9273 9.68584 34.9996 9.35235 34.9996 9.00012C34.9996 8.64789 34.9273 8.31441 34.8152 8.00012H38.9996C39.5523 8.00012 39.9996 7.55235 39.9996 7.00012V3.00012C39.9996 2.44789 39.5523 2.00012 38.9996 2.00012H24.9996C24.4469 2.00012 23.9996 2.44789 23.9996 3.00012V7.00012C23.9996 7.55235 24.4469 8.00012 24.9996 8.00012H29.1839C29.0719 8.31441 28.9996 8.64789 28.9996 9.00012C28.9996 9.35235 29.0719 9.68584 29.1839 10.0001H27.9996C27.4469 10.0001 26.9996 10.4479 26.9996 11.0001V21.0001C26.9996 21.5523 27.4469 22.0001 27.9996 22.0001H28.9996V26.0001C28.4469 26.0001 27.9996 26.4479 27.9996 27.0001V30.1957C27.9719 30.2153 27.9384 30.2251 27.9125 30.2479L23.7245 33.9121L20.1566 33.1005C18.507 32.6818 16.8013 33.6331 16.3531 35.2273L12.5161 48.8901C12.4438 49.1495 12.4781 49.4272 12.613 49.6606C12.7478 49.8937 12.9705 50.0629 13.2313 50.1294L13.263 50.1374L11.0732 57.9343C10.9286 58.4491 10.9969 58.9884 11.2648 59.4536C11.5411 59.9321 11.9933 60.2719 12.5371 60.4111L14.5822 60.9339C14.755 60.9785 14.9291 60.9995 15.0997 60.9995C16.005 60.9995 16.8399 60.4098 17.0898 59.5214L19.2917 51.6785L19.368 51.6981C19.451 51.7196 19.535 51.7294 19.6171 51.7294C20.0555 51.7294 20.4559 51.4392 20.5792 50.9981L23.6438 40.0004H27.9996V51.0004C27.9996 51.5527 28.4469 52.0004 28.9996 52.0004V61.0004C28.9996 61.5527 29.4469 62.0004 29.9996 62.0004H33.9996C34.5523 62.0004 34.9996 61.5527 34.9996 61.0004V52.0004C35.5523 52.0004 35.9996 51.5527 35.9996 51.0004V40.0004H40.3554L43.4205 50.9986C43.5437 51.4401 43.9437 51.7299 44.3826 51.7299C44.4647 51.7299 44.5487 51.72 44.6317 51.6986L44.708 51.679L46.9099 59.5218C47.1599 60.4102 47.9947 61 48.9 61C49.071 61 49.2447 60.979 49.4174 60.9344L51.4626 60.4116C52.0063 60.2723 52.4586 59.9326 52.7349 59.454C53.0028 58.9893 53.0711 58.4495 52.9264 57.9348L52.9264 57.9349ZM29.9995 28H33.9995V30H29.9995V28ZM38.9995 15V19H36.9995V15H38.9995ZM25.9995 4H37.9995V6H25.9995V4ZM30.9995 9C30.9995 8.44866 31.4477 8 31.9995 8C32.5513 8 32.9995 8.44866 32.9995 9C32.9995 9.55134 32.5513 10 31.9995 10C31.4477 10 30.9995 9.55134 30.9995 9ZM28.9995 12H34.9995V20H28.9995V12ZM30.9995 22H32.9995V26H30.9995V22ZM28.9468 32H35.0522L37.3384 34H26.6607L28.9468 32ZM33.9995 37V50H29.9995V37C29.9995 36.4487 30.4477 36 30.9995 36H32.9995C33.5513 36 33.9995 36.4487 33.9995 37ZM15.0772 58.9966L13.0321 58.4738C13.0312 58.4738 12.9977 58.4756 12.9977 58.4756L15.2 50.6327L17.3438 51.1805L15.0772 58.9966ZM18.9152 49.5179L17.6415 49.1925L14.7499 48.4532H14.7477L14.7178 48.4456L18.2785 35.769C18.4356 35.211 19.0579 34.8856 19.6865 35.0449L22.6512 35.7195L22.3471 37.2026L18.9152 49.5179ZM24.2246 38.0002L24.2911 37.6748L24.758 36.0003H28.17C28.1397 36.0864 28.1227 36.1779 28.1004 36.2672C28.0861 36.3239 28.0674 36.3788 28.0562 36.4369C28.0209 36.6199 27.9991 36.807 27.9991 37.0003V38.0003L24.2246 38.0002ZM32.9991 60.0002H30.9991V52.0002H32.9991V60.0002ZM39.7736 38.0002H35.9991V37.0002C35.9991 36.8069 35.9772 36.6199 35.9419 36.4368C35.9308 36.3788 35.912 36.3239 35.8977 36.2672C35.8754 36.1779 35.8584 36.0859 35.8281 36.0002H39.2401L39.7066 37.6747L39.7736 38.0002ZM41.6508 37.2025L41.3468 35.7194L44.3379 35.0386C44.9406 34.8828 45.5634 35.2109 45.7196 35.7689L49.2803 48.4455L49.2504 48.4531H49.2482L46.3566 49.1924L45.0829 49.5178L41.6508 37.2025ZM50.966 58.4733L48.8352 58.98L46.6459 51.1826L48.7986 50.6322L51.0026 58.4528C51.0022 58.4537 50.9941 58.4662 50.966 58.4733L50.966 58.4733Z" fill="#181818"/>
</svg>
