<svg width="48" height="48" viewBox="0 0 48 48" fill="none" xmlns="http://www.w3.org/2000/svg">
<g clip-path="url(#clip0_11_5575)">
<path d="M18 11.25H30C30.4142 11.25 30.75 10.9142 30.75 10.5C30.75 10.0858 30.4142 9.75 30 9.75H18C17.5858 9.75 17.25 10.0858 17.25 10.5C17.25 10.9142 17.5858 11.25 18 11.25Z" fill="#181818"/>
<path d="M18 14.25H26.25C26.6642 14.25 27 13.9142 27 13.5C27 13.0858 26.6642 12.75 26.25 12.75H18C17.5858 12.75 17.25 13.0858 17.25 13.5C17.25 13.9142 17.5858 14.25 18 14.25Z" fill="#181818"/>
<path d="M18 18.75H30C30.4142 18.75 30.75 18.4142 30.75 18C30.75 17.5858 30.4142 17.25 30 17.25H18C17.5858 17.25 17.25 17.5858 17.25 18C17.25 18.4142 17.5858 18.75 18 18.75Z" fill="#181818"/>
<path d="M17.1405 32.6212C17.4258 32.3353 17.6156 31.968 17.6843 31.5698C17.7526 31.1717 17.6963 30.7619 17.5229 30.3969C17.6364 30.1615 17.7365 29.9198 17.8229 29.6734C18.2036 29.5378 18.5331 29.288 18.7661 28.9582C18.9991 28.628 19.1247 28.2343 19.125 27.8302V26.9195C19.1247 26.5153 18.9991 26.1216 18.7661 25.7915C18.5331 25.4617 18.2036 25.2119 17.8229 25.0763C17.7365 24.8299 17.6364 24.5881 17.5229 24.3527C17.6963 23.9878 17.7526 23.578 17.6843 23.1798C17.6156 22.7817 17.4258 22.4144 17.1405 22.1281L16.4963 21.4843C16.2104 21.1987 15.8431 21.0085 15.4446 20.9398C15.0462 20.8715 14.6364 20.9278 14.2711 21.1012C14.0361 20.988 13.7946 20.8883 13.5486 20.8019C13.413 20.4212 13.1632 20.0917 12.8334 19.8587C12.5032 19.6256 12.1095 19.5001 11.7054 19.4998H10.7947C10.3905 19.5001 9.99677 19.6257 9.66665 19.8587C9.33685 20.0917 9.08708 20.4212 8.95147 20.8019C8.70538 20.8883 8.46397 20.988 8.22892 21.1012C7.86364 20.9278 7.45381 20.8715 7.05541 20.9398C6.65697 21.0085 6.28967 21.1986 6.0037 21.4843L5.3595 22.1284C5.07423 22.4144 4.88439 22.7817 4.81575 23.1798C4.74744 23.5779 4.80369 23.9877 4.97713 24.3527C4.86363 24.5881 4.76351 24.8298 4.67713 25.0763C4.29644 25.2119 3.96697 25.4617 3.73393 25.7915C3.50089 26.1216 3.37533 26.5153 3.375 26.9195V27.8302C3.37533 28.2343 3.5009 28.628 3.73393 28.9582C3.96697 29.288 4.29643 29.5377 4.67713 29.6734C4.76351 29.9198 4.86363 30.1615 4.97713 30.3969C4.80369 30.7619 4.74744 31.1717 4.81575 31.5698C4.88438 31.9679 5.07423 32.3352 5.3595 32.6212L6.0037 33.2654C6.28963 33.551 6.65693 33.7412 7.05541 33.8098C7.45384 33.8781 7.86367 33.8218 8.22892 33.6484C8.46397 33.7616 8.70538 33.8614 8.95147 33.9477C9.08707 34.3284 9.33685 34.6579 9.66665 34.8909C9.99679 35.124 10.3905 35.2495 10.7947 35.2499H11.7054C12.1095 35.2495 12.5032 35.124 12.8334 34.8909C13.1632 34.6579 13.4129 34.3284 13.5486 33.9477C13.7946 33.8614 14.0361 33.7616 14.2711 33.6484C14.6364 33.8218 15.0462 33.8781 15.4446 33.8098C15.843 33.7412 16.2104 33.551 16.4963 33.2654L17.1405 32.6212ZM16.0798 31.5605L15.4359 32.2043V32.2047C15.3506 32.2901 15.2347 32.3379 15.1138 32.3379C14.993 32.3379 14.8771 32.2901 14.7918 32.2047L14.4151 31.8277C13.7441 32.3061 12.9734 32.6255 12.1607 32.7621V33.2945C12.1607 33.5459 11.9568 33.7498 11.7054 33.7498H10.7946C10.5432 33.7498 10.3393 33.5459 10.3393 33.2945V32.7621C9.52666 32.6255 8.75588 32.3061 8.08491 31.8277L7.7079 32.2047H7.70824C7.62286 32.2901 7.507 32.3379 7.38614 32.3379C7.26527 32.3379 7.14942 32.2901 7.06404 32.2047L6.42018 31.5608C6.24239 31.3827 6.24239 31.0944 6.42018 30.9166L6.79719 30.5399C6.31873 29.869 5.99931 29.0982 5.86273 28.2856H5.33037C5.20949 28.2856 5.09365 28.2377 5.00827 28.1523C4.92289 28.0669 4.87501 27.9511 4.87501 27.8302V26.9195C4.87501 26.7986 4.92289 26.6828 5.00827 26.5974C5.09365 26.512 5.2095 26.4642 5.33037 26.4642H5.86273C5.99934 25.6515 6.31876 24.8808 6.79719 24.2098L6.42018 23.8328V23.8331C6.24239 23.6553 6.24239 23.3667 6.42018 23.1889L7.06404 22.5451C7.14942 22.4597 7.26527 22.4118 7.38614 22.4118C7.507 22.4118 7.62286 22.4597 7.70824 22.5451L8.08491 22.9221C8.75589 22.4436 9.52662 22.1242 10.3393 21.9876V21.4552C10.3393 21.2038 10.5432 20.9999 10.7946 20.9999H11.7054C11.9568 20.9999 12.1607 21.2038 12.1607 21.4552V21.9876C12.9733 22.1242 13.7441 22.4436 14.4151 22.9221L14.7921 22.5451H14.7918C14.8771 22.4597 14.993 22.4118 15.1138 22.4118C15.2347 22.4118 15.3506 22.4597 15.4359 22.5451L16.0798 23.1889C16.2576 23.3667 16.2576 23.6553 16.0798 23.8331L15.7028 24.2098C16.1813 24.8808 16.5007 25.6515 16.6373 26.4642H17.1696C17.2905 26.4642 17.4063 26.512 17.4917 26.5974C17.5771 26.6828 17.625 26.7986 17.625 26.9195V27.8302C17.625 27.9511 17.5771 28.0669 17.4917 28.1523C17.4063 28.2377 17.2905 28.2856 17.1696 28.2856H16.6373C16.5006 29.0982 16.1812 29.869 15.7028 30.5399L16.0798 30.9166C16.2576 31.0944 16.2576 31.3827 16.0798 31.5608V31.5605Z" fill="#181818"/>
<path d="M11.25 24C10.3551 24 9.49654 24.3556 8.86337 24.9884C8.23056 25.6215 7.875 26.48 7.875 27.375C7.875 28.27 8.23058 29.1285 8.86337 29.7616C9.49652 30.3944 10.355 30.75 11.25 30.75C12.145 30.75 13.0035 30.3944 13.6366 29.7616C14.2694 29.1285 14.625 28.27 14.625 27.375C14.624 26.4803 14.2681 25.6222 13.6353 24.9897C13.0028 24.3569 12.1446 24.001 11.25 24ZM11.25 29.25C10.7528 29.25 10.2757 29.0525 9.92409 28.7009C9.57249 28.3493 9.37498 27.8722 9.37498 27.375C9.37498 26.8778 9.57253 26.4007 9.92409 26.0491C10.2756 25.6975 10.7528 25.5 11.25 25.5C11.7472 25.5 12.2243 25.6975 12.5759 26.0491C12.9275 26.4006 13.125 26.8778 13.125 27.375C13.1243 27.8722 12.9268 28.3486 12.5752 28.7002C12.2237 29.0518 11.7472 29.2493 11.25 29.25L11.25 29.25Z" fill="#181818"/>
<path d="M45.7501 12.7501H39.7501V11.9375C39.749 11.9026 39.7454 11.8682 39.7397 11.834C39.738 11.8216 39.7383 11.8089 39.736 11.7965C39.7249 11.7399 39.7075 11.6847 39.6838 11.6321C39.6824 11.6291 39.6824 11.6261 39.6811 11.6234L37.5001 6.89771V6.00003C37.4994 5.40338 37.262 4.83148 36.8405 4.4096C36.4186 3.98805 35.8467 3.75067 35.2501 3.75H12.7501C12.1534 3.75067 11.5815 3.98805 11.1596 4.4096C10.7381 4.83147 10.5007 5.40337 10.5 6.00003V12.75H2.25003C1.65338 12.7507 1.08148 12.9881 0.659597 13.4096C0.238054 13.8315 0.000668571 14.4034 0 15.0001V39.0001C0.0006696 39.5967 0.238054 40.1686 0.659597 40.5905C1.08147 41.012 1.65337 41.2494 2.25003 41.2501H23.25V42.7501H17.25C16.8359 42.7501 16.5 43.0859 16.5 43.5001C16.5 43.9143 16.8359 44.2501 17.25 44.2501H30.75C31.1642 44.2501 31.5 43.9143 31.5 43.5001C31.5 43.0859 31.1642 42.7501 30.75 42.7501H24.75V41.2501H45.75C46.3467 41.2494 46.9186 41.012 47.3405 40.5905C47.762 40.1686 47.9994 39.5967 48.0001 39.0001V15.0001C47.9994 14.4034 47.762 13.8315 47.3405 13.4096C46.9186 12.9881 46.3467 12.7507 45.75 12.75L45.7501 12.7501ZM35.2501 28.0621V12.6866H38.2501V28.0621H35.2501ZM38.2501 29.5621V31.8746H35.2501V29.5621H38.2501ZM37.8278 11.1866H35.6723L36.7501 8.85127L37.8278 11.1866ZM46.5004 38.9992C46.5001 39.4134 46.1646 39.7489 45.7504 39.7492H2.25041C1.83624 39.7489 1.50075 39.4134 1.50041 38.9992V38.2492H46.5004V38.9992ZM46.5004 36.7492H1.50041V14.9992C1.50075 14.585 1.83624 14.2496 2.25041 14.2492H10.5004V18.0173C10.5982 18.0089 10.6959 17.9992 10.7951 17.9992H11.7054C11.8049 17.9992 11.9023 18.0089 12.0001 18.0173L12.0004 5.9993C12.0007 5.58513 12.3362 5.24964 12.7504 5.2493H35.2504C35.6646 5.24964 36.0001 5.58513 36.0004 5.9993V6.89699L33.8194 11.6227C33.8181 11.6257 33.8181 11.6287 33.8167 11.6314C33.793 11.6839 33.7755 11.7392 33.7645 11.7958C33.7621 11.8082 33.7625 11.8209 33.7608 11.8333C33.7551 11.8674 33.7514 11.9019 33.7504 11.9367V31.8747C33.7508 32.2725 33.9091 32.6539 34.1904 32.9348C34.4713 33.216 34.8527 33.3744 35.2504 33.3747H35.8959C35.763 33.6061 35.5173 33.7487 35.2504 33.7497H18.1333L17.5567 34.3263H17.5564C17.0967 34.7867 16.5154 35.1071 15.8806 35.2497H35.2503C35.7816 35.2487 36.2952 35.0602 36.7007 34.717C37.1065 34.3738 37.3774 33.8984 37.4665 33.3747H38.2503C38.6481 33.3744 39.0294 33.216 39.3103 32.9347C39.5916 32.6538 39.7499 32.2725 39.7503 31.8747V14.2501H45.7503C46.1644 14.2505 46.4999 14.586 46.5003 15.0001L46.5004 36.7492Z" fill="#181818"/>
<path d="M27 21C27 20.5858 26.6642 20.25 26.25 20.25H18C17.8336 20.2507 17.6726 20.3069 17.542 20.41C17.5467 20.4147 17.552 20.4188 17.5567 20.4234L18.2019 21.0686V21.0683C18.4052 21.2725 18.5823 21.5016 18.7283 21.75H26.25C26.6642 21.75 27 21.4142 27 21L27 21Z" fill="#181818"/>
<path d="M30 24.75H19.8506C20.2028 25.1856 20.4442 25.7006 20.5534 26.25H29.9999C30.4141 26.25 30.7499 25.9142 30.7499 25.5C30.7499 25.0858 30.4141 24.75 29.9999 24.75H30Z" fill="#181818"/>
<path d="M26.2501 27.75H20.6251V27.8304C20.6234 28.3206 20.5166 28.8044 20.312 29.25H26.25C26.6642 29.25 27 28.9142 27 28.5C27 28.0858 26.6642 27.75 26.25 27.75L26.2501 27.75Z" fill="#181818"/>
</g>
<defs>
<clipPath id="clip0_11_5575">
<rect width="48" height="48" fill="white"/>
</clipPath>
</defs>
</svg>
