<svg width="48" height="48" viewBox="0 0 48 48" fill="none" xmlns="http://www.w3.org/2000/svg">
<g clip-path="url(#clip0_11_5586)">
<path d="M46.5 43.5H45V36.75C44.9996 36.3522 44.8412 35.9709 44.5603 35.6896C44.2791 35.4087 43.8977 35.2503 43.5 35.25H42.75V27.75C42.7496 27.3522 42.5913 26.9709 42.3103 26.6896C42.0291 26.4087 41.6477 26.2503 41.25 26.25H40.5V23.625C40.5 23.2108 40.1641 22.875 39.75 22.875C39.3358 22.875 39 23.2108 39 23.625V26.25H36.75V21.75C36.75 21.3358 36.4141 21 36 21C35.5858 21 35.25 21.3358 35.25 21.75V26.25H33V23.625C33 23.2108 32.6641 22.875 32.25 22.875C31.8358 22.875 31.5 23.2108 31.5 23.625V26.25H29.25V21.75C29.25 21.3358 28.9141 21 28.5 21C28.0858 21 27.75 21.3358 27.75 21.75V26.25H27C26.6022 26.2503 26.2208 26.4087 25.9396 26.6896C25.6587 26.9709 25.5003 27.3522 25.5 27.75V35.25H24.75C24.3522 35.2503 23.9709 35.4087 23.6896 35.6896C23.4087 35.9709 23.2503 36.3522 23.25 36.75V43.5H21.75C21.3522 43.5003 20.9709 43.6587 20.6896 43.9396C20.4087 44.2209 20.2503 44.6022 20.25 45V47.25C20.25 47.6641 20.5858 48 21 48H47.25C47.6642 48 48 47.6641 48 47.25V45C47.9997 44.6022 47.8413 44.2209 47.5604 43.9396C47.2791 43.6587 46.8978 43.5003 46.5 43.5H46.5ZM27 27.75H41.25V35.25H27V27.75ZM24.75 36.75H43.5V43.5H38.25V40.5C38.2496 40.1022 38.0912 39.7209 37.8103 39.4396C37.5291 39.1587 37.1477 39.0003 36.75 39H31.5C31.1022 39.0003 30.7208 39.1587 30.4396 39.4396C30.1587 39.7209 30.0003 40.1022 30 40.5V43.5H24.75L24.75 36.75ZM36.75 40.5V43.5H31.5V40.5H36.75ZM46.5 46.5H21.75V45H46.5V46.5Z" fill="#181818"/>
<path d="M32.25 29.25H29.25C28.8358 29.25 28.5 29.5858 28.5 30V33C28.5 33.4142 28.8358 33.75 29.25 33.75H32.25C32.6642 33.75 33 33.4142 33 33V30C33 29.5858 32.6642 29.25 32.25 29.25ZM31.5 32.25H30V30.75H31.5V32.25Z" fill="#181818"/>
<path d="M39 29.25H36C35.5858 29.25 35.25 29.5858 35.25 30V33C35.25 33.4142 35.5858 33.75 36 33.75H39C39.4142 33.75 39.75 33.4142 39.75 33V30C39.75 29.5858 39.4142 29.25 39 29.25ZM38.25 32.25H36.75V30.75H38.25V32.25Z" fill="#181818"/>
<path d="M0.750158 11.6249H6.37516V13.1249C6.37583 13.4624 6.49068 13.7898 6.70061 14.0544C6.91054 14.3185 7.20351 14.5044 7.53197 14.5817V22.518C7.49246 22.6536 7.49246 22.7979 7.53197 22.9338V42.7501H6.75016C6.15351 42.7508 5.58162 42.9882 5.15973 43.4097C4.73819 43.8316 4.5008 44.4035 4.50013 45.0001V47.2501C4.50013 47.6643 4.83596 48.0001 5.25013 48.0001H16.5001C16.9143 48.0001 17.2501 47.6643 17.2501 47.2501V45.0001C17.2495 44.4035 17.0121 43.8316 16.5905 43.4097C16.1687 42.9882 15.5968 42.7508 15.0001 42.7501H14.2819V14.5621C14.5956 14.4744 14.8722 14.2862 15.0694 14.0271C15.2666 13.7679 15.3741 13.4512 15.3751 13.1254V11.6254H16.6468L16.6618 11.6257L16.6766 11.6254H33.3754V13.6005C33.3754 13.8372 33.4873 14.0602 33.6771 14.2015L35.009 15.1949L33.3258 18.0003H31.1254C30.7112 18.0003 30.3754 18.3362 30.3754 18.7503C30.3754 19.1645 30.7112 19.5003 31.1254 19.5003H40.8754C41.2895 19.5003 41.6254 19.1645 41.6254 18.7503C41.6254 18.3362 41.2895 18.0003 40.8754 18.0003H38.6749L36.9928 15.1965L38.3243 14.2011C38.5139 14.0595 38.6254 13.8368 38.6254 13.6005V11.6254H41.6254C41.9354 11.6254 42.2136 11.4345 42.3251 11.1449C42.4366 10.8556 42.3586 10.5275 42.1286 10.3192L37.9845 6.56921C37.8465 6.44433 37.6674 6.37535 37.4812 6.37535H32.0022L13.0842 1.8295C12.9509 1.12402 12.4889 0.524667 11.8403 0.216353C11.1921 -0.092356 10.4357 -0.0725989 9.80427 0.268919C9.17279 0.610439 8.74218 1.23286 8.64541 1.94438C8.54865 2.65587 8.79775 3.37075 9.31505 3.86823L8.10768 7.12538H7.87498C7.47722 7.12571 7.09586 7.28408 6.81495 7.56533C6.53371 7.84624 6.37533 8.22761 6.375 8.62536V10.1254H4.5V9.37536C4.5 8.57145 4.07109 7.82882 3.375 7.42673C2.67891 7.02494 1.82109 7.02494 1.125 7.42673C0.428906 7.82885 0 8.57144 0 9.37536V10.8754C0 11.2895 0.335829 11.6254 0.75 11.6254L0.750158 11.6249ZM15.0002 44.2494C15.414 44.2501 15.7495 44.5856 15.7502 44.9994V46.4994H6.00016V44.9994C6.00083 44.5856 6.33632 44.2501 6.75016 44.2494H15.0002ZM12.5954 32.678L10.8752 36.1906L9.15487 32.678L10.8752 29.3814L12.5954 32.678ZM9.1079 22.7532L10.8751 19.7726L12.6419 22.7532L10.8751 26.1389L9.1079 22.7532ZM12.4172 42.7486H9.3329L10.8751 39.6L12.4172 42.7486ZM11.7101 37.895L12.7819 35.707V40.0831L11.7101 37.895ZM11.7211 27.7593L12.7819 25.7266V29.792L11.7211 27.7593ZM11.7469 18.3016L12.7818 16.5558V20.0473L11.7469 18.3016ZM10.875 16.8307L9.56653 14.6236H12.1831L10.875 16.8307ZM10.0032 18.3016L9.03185 19.9398V16.6632L10.0032 18.3016ZM10.0289 27.7593L9.03183 29.6698V25.8488L10.0289 27.7593ZM10.04 37.895L9.03182 39.9532V35.8372L10.04 37.895ZM35.0746 17.999L36 16.4568L36.9255 17.999H35.0746ZM37.125 13.2231L36.0017 14.0628L34.875 13.2228V11.624H37.125V13.2231ZM37.192 7.87401L39.6787 10.124H17.909L19.1034 7.87401H37.192ZM25.5811 6.37401H20.6543L16.8527 4.27667L25.5811 6.37401ZM12.6271 3.6579L18.0703 6.6609L18.0707 6.66123C18.0405 6.69572 18.0137 6.73289 17.9903 6.7724L16.2117 10.124H15.3757V8.624C15.3753 8.22623 15.217 7.84487 14.9357 7.56397C14.6548 7.28272 14.2734 7.12435 13.8757 7.12401H13.7816L12.4775 3.82667C12.5304 3.7731 12.5799 3.71651 12.6271 3.65792L12.6271 3.6579ZM10.8756 1.49893C11.179 1.49893 11.4525 1.68174 11.5684 1.96198C11.6846 2.24223 11.6206 2.56466 11.406 2.77929C11.1914 2.99391 10.8689 3.05786 10.5887 2.94167C10.3085 2.82582 10.1256 2.55227 10.1256 2.24893C10.126 1.83476 10.4615 1.49926 10.8756 1.49893V1.49893ZM10.6845 4.48924C10.7477 4.4946 10.811 4.49895 10.8756 4.49895C10.9587 4.49862 11.042 4.49393 11.1247 4.48422L12.1687 7.12396H9.70814L10.6845 4.48924ZM7.8756 8.62393H13.8756L13.8766 13.1239H7.87557L7.8756 8.62393ZM1.5006 9.37393C1.5006 8.95976 1.83643 8.62393 2.2506 8.62393C2.66477 8.62393 3.0006 8.95976 3.0006 9.37393V10.1239H1.5006V9.37393Z" fill="#181818"/>
</g>
<defs>
<clipPath id="clip0_11_5586">
<rect width="48" height="48" fill="white"/>
</clipPath>
</defs>
</svg>
