<svg width="48" height="48" viewBox="0 0 48 48" fill="none" xmlns="http://www.w3.org/2000/svg">
<g clip-path="url(#clip0_11_5555)">
<path d="M12.6493 42.2965C12.5124 42.116 12.3015 42.0072 12.0755 42.0002C11.8491 41.9925 11.6311 42.0876 11.4828 42.259L9.82545 44.1642L7.17431 42.6642V42.6638C6.98547 42.5564 6.75947 42.5359 6.55422 42.6079C6.34931 42.6796 6.18558 42.8369 6.10555 43.0388L5.13424 45.48L2.8467 44.8987V44.8991C2.61065 44.8395 2.3602 44.8981 2.17538 45.0564L0.262924 46.6803C0.00913285 46.9612 0.00511275 47.3874 0.253214 47.6737C0.50098 47.96 0.923526 48.0162 1.2379 47.8053L2.85773 46.4177L4.92756 46.9427L5.30256 47.5354L5.30289 47.535C5.52923 47.8786 5.99028 47.9753 6.33583 47.752C6.68137 47.529 6.78282 47.069 6.56284 46.7215L6.37534 46.4252L7.18896 44.3814L9.6265 45.7725C9.93688 45.95 10.329 45.8844 10.564 45.6152L12.0004 43.9387L14.7681 47.5949C15.0222 47.9103 15.4809 47.9669 15.804 47.7228C16.1271 47.4787 16.1981 47.022 15.9641 46.6912L12.6493 42.2965Z" fill="#181818"/>
<path d="M48 0.75C48 1.16417 47.6642 1.5 47.25 1.5C46.8358 1.5 46.5 1.16417 46.5 0.75C46.5 0.335829 46.8358 0 47.25 0C47.6642 0 48 0.335829 48 0.75Z" fill="#181818"/>
<path d="M43.5 6.74991C44.0966 6.74991 44.6692 6.51286 45.091 6.09099C45.5128 5.66911 45.7499 5.09653 45.7499 4.49996C45.7499 3.90339 45.5129 3.33073 45.091 2.90893C44.6691 2.48713 44.0965 2.25 43.5 2.25C42.9034 2.25 42.3307 2.48705 41.9089 2.90893C41.4871 3.33081 41.25 3.90339 41.25 4.49996C41.25 5.09653 41.4871 5.66919 41.9089 6.09099C42.3308 6.51279 42.9034 6.74991 43.5 6.74991ZM43.5 3.74991C43.8033 3.74991 44.0769 3.93273 44.1927 4.21297C44.3089 4.49321 44.2449 4.81564 44.0303 5.03027C43.8157 5.2449 43.4933 5.30884 43.213 5.19266C42.9328 5.07681 42.75 4.80326 42.75 4.49991C42.75 4.08574 43.0858 3.74991 43.5 3.74991Z" fill="#181818"/>
<path d="M1.5 0.75C1.5 1.16417 1.16417 1.5 0.75 1.5C0.335829 1.5 0 1.16417 0 0.75C0 0.335829 0.335829 0 0.75 0C1.16417 0 1.5 0.335829 1.5 0.75Z" fill="#181818"/>
<path d="M4.49996 6.74991C5.09661 6.74991 5.66918 6.51286 6.09098 6.09099C6.51278 5.66911 6.74991 5.09653 6.74991 4.49996C6.74991 3.90339 6.51286 3.33073 6.09098 2.90893C5.66911 2.48713 5.09653 2.25 4.49996 2.25C3.90339 2.25 3.33073 2.48705 2.90893 2.90893C2.48713 3.33081 2.25 3.90339 2.25 4.49996C2.25 5.09653 2.48705 5.66919 2.90893 6.09099C3.33081 6.51279 3.90339 6.74991 4.49996 6.74991V6.74991ZM4.49996 3.74991C4.80331 3.74991 5.07686 3.93273 5.1927 4.21297C5.30889 4.49321 5.24493 4.81564 5.03031 5.03027C4.8157 5.2449 4.49326 5.30884 4.21301 5.19266C3.93277 5.07681 3.74996 4.80326 3.74996 4.49991C3.74996 4.08574 4.08579 3.74991 4.49996 3.74991Z" fill="#181818"/>
<path d="M6 34.8755C6 35.2897 5.66417 35.6255 5.25 35.6255C4.83583 35.6255 4.5 35.2897 4.5 34.8755C4.5 34.4613 4.83583 34.1255 5.25 34.1255C5.66417 34.1255 6 34.4613 6 34.8755Z" fill="#181818"/>
<path d="M9 34.8755C9 35.2897 8.66417 35.6255 8.25 35.6255C7.83583 35.6255 7.5 35.2897 7.5 34.8755C7.5 34.4613 7.83583 34.1255 8.25 34.1255C8.66417 34.1255 9 34.4613 9 34.8755Z" fill="#181818"/>
<path d="M12 34.8755C12 35.2897 11.6642 35.6255 11.25 35.6255C10.8358 35.6255 10.5 35.2897 10.5 34.8755C10.5 34.4613 10.8358 34.1255 11.25 34.1255C11.6642 34.1255 12 34.4613 12 34.8755Z" fill="#181818"/>
<path d="M15 34.8755C15 35.2897 14.6642 35.6255 14.25 35.6255C13.8358 35.6255 13.5 35.2897 13.5 34.8755C13.5 34.4613 13.8358 34.1255 14.25 34.1255C14.6642 34.1255 15 34.4613 15 34.8755Z" fill="#181818"/>
<path d="M18 34.8755C18 35.2897 17.6642 35.6255 17.25 35.6255C16.8358 35.6255 16.5 35.2897 16.5 34.8755C16.5 34.4613 16.8358 34.1255 17.25 34.1255C17.6642 34.1255 18 34.4613 18 34.8755Z" fill="#181818"/>
<path d="M21 34.8755C21 35.2897 20.6642 35.6255 20.25 35.6255C19.8358 35.6255 19.5 35.2897 19.5 34.8755C19.5 34.4613 19.8358 34.1255 20.25 34.1255C20.6642 34.1255 21 34.4613 21 34.8755Z" fill="#181818"/>
<path d="M45.8245 45.0412C45.6397 44.8828 45.3892 44.8242 45.1532 44.8838L42.8656 45.4651L41.8943 43.0239C41.743 42.6429 41.3137 42.4541 40.9307 42.6001L38.5646 43.5001L37.2219 42.21C37.079 42.0683 36.8834 41.9923 36.6819 42C36.4806 42.0057 36.2901 42.0924 36.1532 42.2401L33.5282 45.0676L34.698 39.225H34.6983C34.8252 38.996 34.8872 38.7368 34.8781 38.475V30.75C35.2759 30.75 35.6576 30.592 35.9389 30.3107C36.2201 30.0295 36.3781 29.6478 36.3781 29.25V27.75C36.3771 27.4182 36.266 27.0964 36.0627 26.8342C35.8592 26.5724 35.5742 26.3852 35.2531 26.3026V3.75026C35.2531 2.75521 34.8577 1.80061 34.1536 1.09715C33.4495 0.394027 32.4946 -0.000764432 31.4995 0.000264139H24.1119C23.7155 -0.00140995 23.3257 0.10205 22.9819 0.299596C22.638 0.497141 22.3527 0.781738 22.1545 1.12526L18.4045 8.18666L16.0718 7.87528C15.6794 7.87696 15.3044 8.03733 15.0315 8.31992C14.7589 8.60252 14.6123 8.98287 14.6243 9.37524V11.2502H8.66917C8.16895 11.2382 7.68414 11.4267 7.32354 11.7739C6.96294 12.1214 6.75635 12.5982 6.74932 13.0991V15.7503H1.49932C0.82801 15.7503 -0.000676182 16.4028 -0.000676182 17.0815V27.2704C-0.00268515 27.5948 0.124209 27.9065 0.352226 28.1372C0.579901 28.3679 0.889946 28.4985 1.21443 28.5005H14.249V30.3755H4.87357C2.17357 30.3755 -0.00143084 32.3891 -0.00143084 34.8755C0.00526559 35.9998 0.452255 37.077 1.2434 37.8755H0.748535C0.334364 37.8755 -0.00146484 38.2113 -0.00146484 38.6255C-0.00146484 39.0396 0.334364 39.3755 0.748535 39.3755H20.624C23.3052 39.3755 25.499 37.3619 25.499 34.8755C25.499 32.3891 23.324 30.3755 20.624 30.3755H19.499V28.5005H24.2839C24.6083 28.4985 24.9184 28.3679 25.1461 28.1372C25.3741 27.9065 25.501 27.5948 25.499 27.2704V10.5004C25.4993 10.1153 25.3517 9.74467 25.0865 9.46544C24.8213 9.1862 24.4587 9.0198 24.074 9.00038L25.949 5.25038H29.249C29.4479 5.25038 29.6388 5.32939 29.7794 5.47002C29.92 5.61064 29.999 5.80149 29.999 6.00038V26.2992C29.6773 26.3823 29.392 26.5698 29.1884 26.8326C28.9849 27.0951 28.8744 27.4179 28.874 27.7504V29.2504C28.874 29.6481 29.0321 30.0298 29.3133 30.3111C29.5946 30.5923 29.9763 30.7504 30.374 30.7504V38.4941C30.365 38.756 30.4273 39.0151 30.5542 39.2441L31.724 45.0867L29.099 42.2592C28.962 42.1115 28.7715 42.0248 28.5703 42.0191C28.3687 42.0108 28.1732 42.0871 28.0302 42.2291L26.6876 43.5004L24.3215 42.6004C23.9384 42.4544 23.5092 42.6432 23.3579 43.0243L22.3866 45.4654L20.099 44.8842C19.863 44.8246 19.6128 44.8832 19.4277 45.0415L17.5152 46.6842C17.2618 46.9654 17.2574 47.3913 17.5055 47.6776C17.7536 47.9639 18.1758 48.0201 18.4902 47.8092L20.11 46.4216L22.1799 46.9466L22.5549 47.5393L22.5552 47.5389C22.7819 47.8825 23.2426 47.9792 23.5881 47.7562C23.9337 47.5329 24.0351 47.0732 23.8152 46.7254L23.624 46.4254L24.4791 44.2503L26.5979 45.0566C26.8694 45.1601 27.1761 45.0971 27.3854 44.8952L28.5104 43.8041L32.0655 47.6364L32.088 47.6552V47.6739L32.1255 47.7001L32.1891 47.7489L32.2527 47.7864L32.3203 47.8166L32.3917 47.839H32.8159L32.8795 47.8166L32.9508 47.7828L33.0107 47.7489L33.0744 47.7001L33.1119 47.6739V47.6552L33.1343 47.6364L36.6895 43.8041L37.8145 44.8952H37.8141C38.0231 45.0971 38.3301 45.1601 38.6016 45.0566L40.7204 44.2503L41.6241 46.4254L41.4215 46.7367C41.2019 47.0843 41.303 47.5443 41.6485 47.7673C41.9941 47.9906 42.4551 47.8938 42.6815 47.5503L43.0565 46.9577L45.1263 46.4327L46.7461 47.8202H46.7465C47.0609 48.0315 47.4834 47.9749 47.7315 47.689C47.9793 47.4027 47.9752 46.9765 47.7214 46.6952L45.8245 45.0412ZM33.059 39.7501L32.6241 41.9251L32.1892 39.7501H33.059ZM30.3741 29.2501V27.7501H34.8741V29.2501H30.3741ZM8.24955 13.0989C8.25592 12.9958 8.3048 12.8997 8.38415 12.8337C8.46384 12.7678 8.56696 12.7373 8.66942 12.75H14.6246V15.75H8.24959L8.24955 13.0989ZM15.7496 28.5001H17.9996V30.3751H15.7496V28.5001ZM20.6246 31.8751C22.4771 31.8751 23.9996 33.2214 23.9996 34.8751C23.9996 36.5287 22.4996 37.8751 20.6246 37.8751H4.87455C2.99955 37.8751 1.49955 36.5287 1.49955 34.8751C1.49955 33.2214 2.99955 31.8751 4.87455 31.8751H20.6246ZM1.49998 27.0001V17.2801L1.55255 17.2499H16.1248V9.39737L23.7899 10.4999H23.9999V21.7499H9.74985C9.33568 21.7499 8.99985 22.0857 8.99985 22.4999C8.99985 22.9141 9.33568 23.2499 9.74985 23.2499H23.9999V26.9999L1.49998 27.0001ZM29.25 3.75005H25.9349C25.6714 3.74972 25.4122 3.81869 25.1836 3.9506C24.9552 4.08219 24.7657 4.2717 24.6338 4.50005L22.4999 8.79014L19.965 8.41514L23.4635 1.87505C23.5975 1.64336 23.8449 1.50038 24.1124 1.50005H31.5C32.0966 1.50005 32.6692 1.7371 33.091 2.15898C33.5128 2.58086 33.7499 3.15344 33.7499 3.75001V26.25H31.4999V6.00001C31.4999 5.40336 31.2629 4.83078 30.841 4.40898C30.4191 3.98718 29.8465 3.75005 29.25 3.75005H29.25ZM33.375 30.7501V37.5001H31.875V30.7501H33.375Z" fill="#181818"/>
<path d="M39.1241 41.6246C39.3009 41.6249 39.4723 41.5623 39.6076 41.4485L40.6087 40.6047H40.6091C40.9258 40.3375 40.9663 39.8641 40.6991 39.547C40.432 39.2303 39.9585 39.1898 39.6414 39.4569L38.6253 40.3007C38.3842 40.5039 38.2958 40.8361 38.404 41.1321C38.5121 41.428 38.7937 41.6249 39.1091 41.6246L39.1241 41.6246Z" fill="#181818"/>
<path d="M36.375 40.0312C36.375 40.4454 36.7108 40.7812 37.125 40.7812C37.5392 40.7812 37.875 40.4454 37.875 40.0312V38.625C37.875 38.2108 37.5392 37.875 37.125 37.875C36.7108 37.875 36.375 38.2108 36.375 38.625V40.0312Z" fill="#181818"/>
<path d="M26.1253 41.6245C26.4434 41.6312 26.731 41.4366 26.8432 41.139C26.9553 40.8413 26.8676 40.5055 26.6242 40.3006L25.623 39.4568C25.4707 39.3286 25.2738 39.266 25.0756 39.283C24.8771 39.2998 24.6936 39.3949 24.5653 39.5469C24.2982 39.864 24.3387 40.3374 24.6554 40.6046L25.6566 41.4484C25.7881 41.5589 25.9535 41.6211 26.1253 41.6245L26.1253 41.6245Z" fill="#181818"/>
<path d="M28.875 40.0312V38.625C28.875 38.2108 28.5392 37.875 28.125 37.875C27.7108 37.875 27.375 38.2108 27.375 38.625V40.0312C27.375 40.4454 27.7108 40.7812 28.125 40.7812C28.5392 40.7812 28.875 40.4454 28.875 40.0312Z" fill="#181818"/>
<path d="M19.5 16.5C19.6989 16.5 19.8897 16.421 20.0304 16.2804C20.171 16.1397 20.25 15.9489 20.25 15.75V14.25C20.25 13.8358 19.9142 13.5 19.5 13.5C19.0858 13.5 18.75 13.8358 18.75 14.25V15.75C18.75 15.9489 18.829 16.1397 18.9696 16.2804C19.1103 16.421 19.3011 16.5 19.5 16.5Z" fill="#181818"/>
<path d="M7.5 22.5C7.5 22.9142 7.16417 23.25 6.75 23.25C6.33583 23.25 6 22.9142 6 22.5C6 22.0858 6.33583 21.75 6.75 21.75C7.16417 21.75 7.5 22.0858 7.5 22.5Z" fill="#181818"/>
</g>
<defs>
<clipPath id="clip0_11_5555">
<rect width="48" height="48" fill="white"/>
</clipPath>
</defs>
</svg>
