<svg width="95" height="74" viewBox="0 0 95 74" fill="none" xmlns="http://www.w3.org/2000/svg">
<path d="M47.5047 56.9193L15.8106 40.2793L0.993164 45.9256L47.5047 71.7077L94.0079 45.9256L79.1946 40.2793L47.5047 56.9193Z" fill="#562C13"/>
<path d="M1.0498 48.0305V46.0253L47.5032 71.7741L93.9857 46.0253L93.9483 48.0305L47.5032 73.7836L1.0498 48.0305Z" fill="white"/>
<path d="M1.10941 46.1251L47.4507 71.8117L47.5047 71.8407L47.5628 71.8117L93.929 46.1251L93.8958 47.9975L47.5088 73.738L1.10941 47.9975V46.1251V46.1251ZM94.0494 45.9258L47.5047 71.7079L0.993164 45.9258V48.0681L47.4922 73.8501L93.9913 48.0681L94.0328 45.9258H94.0494Z" fill="#742F21"/>
<path d="M47.5 71.7822V73.7377" stroke="#742F21" stroke-width="0.28" stroke-miterlimit="10"/>
<path d="M47.52 56.5789V58.4471" stroke="#742F21" stroke-width="0.28" stroke-miterlimit="10"/>
<path d="M47.52 41.5454V43.4303" stroke="#742F21" stroke-width="0.28" stroke-miterlimit="10"/>
<path d="M0.993164 18.7361L47.5047 1L94.0494 18.7361" stroke="#742F21" stroke-width="0.28" stroke-miterlimit="10"/>
<path d="M78.5917 26.288L94.0485 18.7361L47.5037 1L0.950684 18.7361L16.4075 26.288L47.5037 14.4391L78.5917 26.288Z" fill="#F7A524"/>
<path d="M0.993164 45.9255L47.5047 28.2268L94.0494 45.9255" stroke="#742F21" stroke-width="0.28" stroke-miterlimit="10"/>
<path d="M2.07178 34.6786V32.7148L47.5039 56.5705L92.965 32.7148L92.9276 34.6786L47.5039 58.5177L2.07178 34.6786Z" fill="white"/>
<path d="M2.13041 32.8101L47.4504 56.6077L47.5044 56.6367L47.5625 56.6077L92.9032 32.8143L92.87 34.641L47.5002 58.451L2.13041 34.641V32.8101ZM93.0236 32.615L47.5044 56.5039L2.01416 32.615V34.6908L47.5044 58.5631L92.9863 34.6908L93.0236 32.615V32.615Z" fill="#742F21"/>
<path d="M16.4079 27.1184L1.99316 32.607L15.8059 39.8641L30.8018 34.1472L16.4079 27.1184Z" fill="#C5601C"/>
<path d="M79.193 39.8641L93.0057 32.607L78.591 27.1184L64.2012 34.1472L79.193 39.8641Z" fill="#C5601C"/>
<path d="M79.1936 39.864L64.2018 34.1471L47.5037 42.3052L30.8014 34.1471L15.8096 39.864L47.5037 56.504L79.1936 39.864Z" fill="#C25812"/>
<path d="M1.99316 32.607L47.5041 15.2529L93.0068 32.607" stroke="#742F21" stroke-width="0.28" stroke-miterlimit="10"/>
<path d="M30.8013 33.3172L47.5036 41.4753L64.2017 33.3172L47.5036 26.9526L30.8013 33.3172Z" fill="#F59A00"/>
<path d="M47.5035 26.9524L64.2016 33.317L78.5914 26.2882L47.5035 14.4392L16.4072 26.2882L30.8012 33.317L47.5035 26.9524Z" fill="#F69F0E"/>
<path d="M1.0498 20.841V18.8315L47.5032 41.5414L93.9857 18.8315L93.9483 20.841L47.5032 43.5093L1.0498 20.841Z" fill="white"/>
<path d="M1.10941 18.923L47.4507 41.583L47.5005 41.6079L47.5545 41.583L93.9498 18.9272L93.9124 20.8038L47.5005 43.443L1.10941 20.8038V18.923ZM94.0494 18.7362L47.5047 41.4751L0.993164 18.7362V20.866L47.4922 43.5634L94.0079 20.866L94.0494 18.7238V18.7362Z" fill="#742F21"/>
<path d="M47.5 56.5332V58.4887" stroke="#742F21" stroke-width="0.28" stroke-miterlimit="10"/>
<path d="M47.5 41.5122V43.4677" stroke="#742F21" stroke-width="0.28" stroke-miterlimit="10"/>
</svg>
