<svg width="217" height="50" viewBox="0 0 217 50" fill="none" xmlns="http://www.w3.org/2000/svg">
<g clip-path="url(#clip0_11_32)">
<path d="M31.2169 38.4969L9.96425 27.3389L0.0283203 31.125L31.2169 48.4134L62.4 31.125L52.4668 27.3389L31.2169 38.4969Z" fill="#562C13"/>
<path d="M0.0664062 32.5365V31.1919L31.216 48.458L62.3852 31.1919L62.3601 32.5365L31.216 49.8054L0.0664062 32.5365Z" fill="white"/>
<path d="M0.106271 31.2589L31.1807 48.4832L31.2169 48.5027L31.2559 48.4832L62.3471 31.2589L62.3248 32.5144L31.2197 49.7749L0.106271 32.5144V31.2589ZM62.4278 31.1252L31.2169 48.4136L0.0283203 31.1252V32.5618L31.2086 49.8501L62.3888 32.5618L62.4167 31.1252H62.4278Z" fill="#742F21"/>
<path d="M31.2139 48.4636V49.7749" stroke="#742F21" stroke-width="0.28" stroke-miterlimit="10"/>
<path d="M31.2275 38.2688V39.5216" stroke="#742F21" stroke-width="0.28" stroke-miterlimit="10"/>
<path d="M31.2275 28.188V29.4519" stroke="#742F21" stroke-width="0.28" stroke-miterlimit="10"/>
<path d="M0.0283203 12.893L31.2169 1L62.4278 12.893" stroke="#742F21" stroke-width="0.28" stroke-miterlimit="10"/>
<path d="M52.0627 17.9571L62.4273 12.893L31.2165 1L0 12.893L10.3647 17.9571L31.2165 10.0117L52.0627 17.9571Z" fill="#F7A524"/>
<path d="M0.0283203 31.1251L31.2169 19.2571L62.4278 31.1251" stroke="#742F21" stroke-width="0.28" stroke-miterlimit="10"/>
<path d="M0.751953 23.5834V22.2666L31.2167 38.2632L61.701 22.2666L61.676 23.5834L31.2167 39.5689L0.751953 23.5834Z" fill="white"/>
<path d="M0.790841 22.3306L31.1805 38.2882L31.2167 38.3077L31.2556 38.2882L61.6592 22.3333L61.6369 23.5583L31.2139 39.5242L0.790841 23.5583V22.3306ZM61.7399 22.1997L31.2167 38.2186L0.712891 22.1997V23.5917L31.2167 39.5994L61.7148 23.5917L61.7399 22.1997Z" fill="#742F21"/>
<path d="M10.3651 18.5139L0.699219 22.1943L9.96143 27.0606L20.0171 23.2271L10.3651 18.5139Z" fill="#C5601C"/>
<path d="M52.4659 27.0606L61.7281 22.1943L52.0623 18.5139L42.4131 23.2271L52.4659 27.0606Z" fill="#C5601C"/>
<path d="M52.4665 27.0606L42.4136 23.2271L31.2166 28.6975L20.0167 23.2271L9.96387 27.0606L31.2166 38.2186L52.4665 27.0606Z" fill="#C25812"/>
<path d="M0.699219 22.1943L31.2169 10.5574L61.729 22.1943" stroke="#742F21" stroke-width="0.28" stroke-miterlimit="10"/>
<path d="M20.0166 22.6704L31.2164 28.1409L42.4135 22.6704L31.2164 18.4026L20.0166 22.6704Z" fill="#F59A00"/>
<path d="M31.2161 18.4025L42.4131 22.6703L52.0623 17.9571L31.2161 10.0117L10.3643 17.9571L20.0162 22.6703L31.2161 18.4025Z" fill="#F69F0E"/>
<path d="M0.0664062 14.3045V12.957L31.216 28.1853L62.3852 12.957L62.3601 14.3045L31.216 29.5048L0.0664062 14.3045Z" fill="white"/>
<path d="M0.106271 13.0184L31.1807 28.2132L31.2142 28.2299L31.2503 28.2132L62.361 13.0212L62.3359 14.2795L31.2142 29.4604L0.106271 14.2795V13.0184ZM62.4278 12.8931L31.2169 28.1408L0.0283203 12.8931V14.3213L31.2086 29.5412L62.4 14.3213L62.4278 12.8848V12.8931Z" fill="#742F21"/>
<path d="M31.2139 38.238V39.5493" stroke="#742F21" stroke-width="0.28" stroke-miterlimit="10"/>
<path d="M31.2139 28.1658V29.477" stroke="#742F21" stroke-width="0.28" stroke-miterlimit="10"/>
<path d="M80.094 17.4744V35.1014H77V14.6909H89.5535V17.4633L80.094 17.4744Z" fill="#562C13"/>
<path d="M93.0468 35.1014V14.6909H106.116V17.4633H96.1352V23.424H104.624V26.1964H96.1463V32.329H106.127V35.1014H93.0468Z" fill="#562C13"/>
<path d="M122.313 33.0942C120.871 34.4883 118.944 35.2675 116.938 35.2675C114.932 35.2675 113.004 34.4883 111.562 33.0942C109.555 31.0592 109.588 28.1926 109.588 25.0376V23.9286C109.588 20.6017 109.843 18.3838 111.562 16.676C113.002 15.278 114.93 14.4961 116.938 14.4961C118.945 14.4961 120.873 15.278 122.313 16.676C123.888 18.2784 124.287 20.5573 124.287 23.4406V24.8712C124.287 28.3922 124.315 31.026 122.313 33.0942ZM119.94 18.5612C119.547 18.1545 119.074 17.8329 118.552 17.6164C118.029 17.3999 117.467 17.2931 116.902 17.3025C116.336 17.2957 115.775 17.4037 115.253 17.6201C114.731 17.8364 114.258 18.1566 113.863 18.5612C112.66 19.8254 112.687 21.9435 112.687 24.7492C112.687 27.3608 112.543 29.9115 113.863 31.2311C114.258 31.6357 114.731 31.9559 115.253 32.1723C115.775 32.3886 116.336 32.4967 116.902 32.4898C117.468 32.5047 118.031 32.4003 118.555 32.1835C119.078 31.9666 119.55 31.6422 119.94 31.2311C121.143 29.9669 121.143 28.1648 121.143 24.6938C121.166 21.5998 121.105 19.7644 119.94 18.5612Z" fill="#562C13"/>
<path d="M143.743 35.1014V21.4556L137.938 31.0426L131.966 21.4556V35.1014H128.872V14.6909H131.938L137.899 25.2261L143.777 14.6909H146.871V35.1014H143.743Z" fill="#562C13"/>
<path d="M163.922 35.1014L162.491 30.9983H154.435L153.004 35.1014H149.738L157.213 14.6909H159.708L167.16 35.1014H163.922ZM158.532 19.3042L155.322 28.3478H161.66L158.532 19.3042Z" fill="#562C13"/>
<path d="M182.346 35.1014L176.613 25.0209L173.175 29.1463V35.0848H170.081V14.6909H173.17V24.9544L181.487 14.6909H185.296L178.676 22.6866L185.984 35.1014H182.346Z" fill="#562C13"/>
<path d="M198.593 34.6966C197.637 35.083 196.613 35.2716 195.582 35.2511C194.579 35.2764 193.582 35.0967 192.652 34.7229C191.721 34.3491 190.877 33.7892 190.17 33.0775C188.135 31.0426 188.191 28.2313 188.191 24.8767C188.163 24.6002 188.163 24.3215 188.191 24.045C188.191 20.2911 188.479 18.4004 190.17 16.6815C190.876 15.9768 191.717 15.4209 192.642 15.0467C193.566 14.6724 194.557 14.4873 195.554 14.5023C196.594 14.4765 197.629 14.6652 198.593 15.0568C199.579 15.4961 200.475 16.1168 201.232 16.8866L199.17 18.9826C197.961 17.8071 197.074 17.2637 195.554 17.2637C194.991 17.2497 194.432 17.3518 193.91 17.5636C193.388 17.7754 192.915 18.0923 192.521 18.4946C191.346 19.7533 191.312 21.9324 191.312 24.5939V25.5088C191.312 29.0076 191.545 30.2108 192.521 31.2422C192.91 31.6518 193.381 31.9735 193.905 32.1858C194.428 32.3981 194.99 32.4961 195.554 32.4731C197.074 32.4731 197.961 31.9186 199.17 30.7542L201.232 32.8446C200.478 33.6238 199.582 34.2523 198.593 34.6966Z" fill="#562C13"/>
<path d="M212.344 16.4984L211.236 14.6409H210.487V16.4984H209.999V12.0625H211.43C211.607 12.0566 211.784 12.086 211.95 12.1491C212.116 12.2121 212.268 12.3075 212.397 12.4298C212.526 12.5521 212.63 12.6987 212.702 12.8612C212.773 13.0238 212.812 13.199 212.816 13.3766C212.807 13.6616 212.703 13.9356 212.522 14.1554C212.34 14.3752 212.09 14.5284 211.812 14.591L212.921 16.4928L212.344 16.4984ZM211.385 14.2139C211.506 14.2276 211.627 14.2158 211.743 14.1791C211.858 14.1425 211.965 14.0819 212.055 14.0013C212.145 13.9206 212.218 13.8218 212.267 13.7113C212.317 13.6008 212.342 13.4811 212.342 13.36C212.342 13.2389 212.317 13.1192 212.267 13.0087C212.218 12.8982 212.145 12.7994 212.055 12.7187C211.965 12.6381 211.858 12.5775 211.743 12.5409C211.627 12.5042 211.506 12.4924 211.385 12.5061H210.509V14.2139H211.385Z" fill="#562C13"/>
<path d="M214.999 14.2806C214.999 15.0329 214.776 15.7683 214.358 16.3938C213.94 17.0193 213.346 17.5069 212.651 17.7948C211.956 18.0827 211.191 18.158 210.453 18.0112C209.715 17.8645 209.038 17.5022 208.506 16.9702C207.974 16.4383 207.611 15.7605 207.465 15.0226C207.318 14.2848 207.393 13.52 207.681 12.8249C207.969 12.1299 208.457 11.5358 209.082 11.1179C209.708 10.6999 210.443 10.4768 211.195 10.4768C212.204 10.4768 213.172 10.8776 213.885 11.5909C214.598 12.3042 214.999 13.2717 214.999 14.2806V14.2806Z" stroke="#562C13" stroke-width="0.57" stroke-miterlimit="10"/>
</g>
<defs>
<clipPath id="clip0_11_32">
<rect width="217" height="50" fill="white"/>
</clipPath>
</defs>
</svg>
