<svg width="63" height="11" viewBox="0 0 63 11" fill="none" xmlns="http://www.w3.org/2000/svg">
<g clip-path="url(#clip0_1_27)">
<path fill-rule="evenodd" clip-rule="evenodd" d="M62.993 3.46833C62.989 3.69533 62.785 3.87933 62.535 3.87933H61.122C60.976 3.91133 60.828 3.94333 60.679 3.97433C60.575 4.05133 60.508 4.16633 60.508 4.29733V10.3993C60.508 10.6283 60.598 10.8173 60.346 10.8173H58.49C58.238 10.8173 58.032 10.6283 58.032 10.3993V4.52533V4.29733C58.032 4.25333 58.022 4.21233 58.009 4.17333C57.95 4.00333 57.83 3.87933 57.626 3.87933H55.996C55.744 3.87933 55.538 3.69133 55.538 3.46233V2.29733C55.538 2.06833 55.744 1.88033 55.996 1.88033H62.535C62.6 1.88033 62.662 1.89333 62.718 1.91533C62.88 1.98033 62.993 2.12733 62.993 2.29733V3.46233V3.46833ZM53.855 10.8143H52.294C52.042 10.8143 51.837 10.6273 51.837 10.3973V8.84733C51.837 8.61833 51.72 8.56033 51.577 8.71833C51.577 8.71833 51.577 8.71833 51.401 8.88733C51.225 9.05633 51.031 9.22433 50.819 9.39333C50.739 9.45933 50.655 9.52433 50.57 9.59033H50.571L50.57 9.59133C50.498 9.64833 50.425 9.70433 50.351 9.76133C50.292 9.80633 50.233 9.84833 50.174 9.89233C49.614 10.2673 48.646 10.8553 47.145 10.8143H46.454C46.202 10.8143 45.996 10.6273 45.996 10.3973V6.91233V5.87533V2.29533C45.996 2.06633 46.202 1.87833 46.454 1.87833H48.066C48.318 1.87833 48.524 2.06633 48.524 2.29533V5.66233V6.49033V7.85633C48.524 8.08533 48.668 8.18833 48.845 8.08433C48.845 8.08433 48.949 8.08433 49.116 7.97233C49.283 7.86033 49.455 7.73533 49.631 7.59833C49.913 7.39033 50.19 7.15933 50.463 6.90633C50.736 6.65333 50.991 6.39833 51.229 6.14133C51.278 6.08633 51.325 6.03233 51.372 5.97733C51.434 5.90533 51.495 5.83333 51.553 5.76233C51.654 5.63833 51.749 5.51533 51.837 5.39433V5.35633V2.29533C51.837 2.06633 52.042 1.87833 52.294 1.87833H53.855C54.106 1.87833 54.312 2.06633 54.312 2.29533V5.03033V5.21733V10.3973C54.312 10.6273 54.106 10.8143 53.855 10.8143ZM51.749 1.00833C51.305 1.25933 50.803 1.38433 50.241 1.38433C49.691 1.38433 49.194 1.25933 48.75 1.00833C48.551 0.895328 48.39 0.764328 48.262 0.615328C47.854 0.0993282 48.399 -0.0136719 48.399 -0.0136719H51.948C52.269 -0.0136719 52.434 0.209328 52.314 0.480328C52.314 0.480328 52.192 0.757328 51.749 1.00833ZM44.302 10.8173H42.687C42.208 10.8173 42.071 10.5353 42.031 10.4073C42.027 10.3883 42.023 10.3693 42.019 10.3483C42.01 10.3053 42 10.2543 41.99 10.1983H39.371V8.18333H41.467C41.383 7.90833 41.298 7.63633 41.223 7.39733C41.194 7.30233 41.165 7.20833 41.14 7.12533C41.139 7.09733 41.135 7.07033 41.127 7.04133C41.127 7.04133 41.116 7.00633 41.058 6.84533C41.051 6.82633 41.044 6.80533 41.035 6.78233C40.956 6.56533 40.877 6.35633 40.797 6.15633L40.791 6.14133C40.652 5.80233 40.52 5.51133 40.395 5.27033C40.267 5.02633 40.185 4.86733 40.15 4.79433C39.92 5.24133 39.71 5.71033 39.514 6.19433C39.485 6.26633 39.453 6.33633 39.424 6.40833C39.271 6.79933 39.133 7.51233 39.002 7.90233C38.95 7.90633 38.899 7.90933 38.848 7.91333H38.514H38.363H36.227C36.367 7.47133 36.516 6.71333 36.673 6.28333C36.902 5.65233 37.149 5.03233 37.416 4.42833C37.805 3.54933 38.203 2.79533 38.611 2.16633C38.663 2.09133 38.846 1.88033 39.263 1.88033H41C41.252 1.88033 41.563 2.04233 41.691 2.23833C41.691 2.23833 42.147 2.94233 42.442 3.50033C42.736 4.05833 43.003 4.61833 43.241 5.18033C43.357 5.45533 43.465 5.72833 43.569 5.99933C43.711 6.37333 43.842 6.74433 43.963 7.11233C44.079 7.46833 44.189 7.82233 44.284 8.17333L44.287 8.18333H44.302V8.24233C44.509 9.00933 44.677 9.71833 44.806 10.3683C44.824 10.5103 44.804 10.8173 44.302 10.8173ZM35.504 3.70933C35.504 3.70933 35.504 3.70933 35.282 3.68233C35.06 3.65533 34.824 3.64633 34.573 3.65633C33.606 3.69233 32.872 3.96233 32.371 4.46733C31.881 4.96033 31.65 5.59133 31.674 6.35633C31.675 6.37233 31.674 6.38833 31.674 6.40533C31.709 7.16133 31.903 7.72033 32.257 8.08133C32.611 8.44233 32.994 8.69033 33.407 8.82433C33.626 8.88733 33.84 8.97633 34.049 8.99533C34.217 9.01233 34.367 9.01933 34.5 9.01833H38.148V10.3943V10.8773V10.9123H35.596L25.899 10.9253H25.762H25.76H25.571C25.423 10.9213 25.249 10.9093 25.142 10.9023C23.912 10.8083 22.98 10.4823 22.349 9.82633C21.554 9.00033 21.09 8.07233 20.957 7.04433C20.945 6.96633 20.934 6.88533 20.927 6.80233C20.918 6.71933 20.912 6.63933 20.909 6.56133C20.902 6.42033 20.902 6.28333 20.907 6.14733C20.942 4.99133 21.358 4.01633 22.159 3.22333C23.053 2.33633 24.342 1.86233 26.027 1.79833C26.372 1.78533 26.695 1.79033 26.994 1.81533C27.294 1.83833 27.579 1.87833 27.85 1.93033L27.918 3.42333C27.928 3.64833 27.768 3.79933 27.563 3.75733C27.563 3.75733 27.563 3.75733 27.341 3.73033C27.119 3.70433 26.883 3.69533 26.633 3.70433C25.665 3.74133 24.931 4.01133 24.431 4.51633C23.974 4.97533 23.743 5.55533 23.733 6.25133C23.732 6.31933 23.73 6.38533 23.734 6.45333C23.768 7.20933 23.962 7.76933 24.316 8.13133C24.67 8.49133 25.053 8.73933 25.466 8.87333C25.685 8.93633 25.899 8.97733 26.108 8.99733C26.276 9.01333 26.426 9.02033 26.56 9.01933L29.673 9.01333C29.252 8.39033 28.991 7.71833 28.898 6.99533C28.885 6.91733 28.875 6.83633 28.867 6.75333C28.859 6.67133 28.853 6.59033 28.849 6.51133C28.847 6.45733 28.847 6.40333 28.846 6.35133C28.825 5.08333 29.242 4.02433 30.099 3.17433C30.993 2.28833 32.283 1.81233 33.967 1.74933C34.313 1.73633 34.635 1.74233 34.935 1.76633C35.235 1.79033 35.519 1.82933 35.79 1.88133L35.858 3.37433C35.869 3.59933 35.709 3.75033 35.504 3.70933ZM18.429 9.82233C17.447 10.6143 16.243 11.0093 14.817 11.0093C13.373 11.0093 12.164 10.6143 11.191 9.82233C10.218 9.03233 9.732 7.87433 9.732 6.34833C9.732 6.07433 9.748 5.81333 9.779 5.56233C9.789 5.48533 9.804 5.41033 9.817 5.33433C9.991 4.29433 10.446 3.46733 11.191 2.86133C12.164 2.07033 13.373 1.67533 14.817 1.67533C16.243 1.67533 17.447 2.07033 18.429 2.86133C19.357 3.60933 19.846 4.68933 19.897 6.10133C19.899 6.18233 19.902 6.26433 19.902 6.34833C19.902 6.66033 19.88 6.95433 19.839 7.23533C19.68 8.33033 19.211 9.19333 18.429 9.82233ZM17.014 5.94133C16.959 5.40133 16.796 4.91833 16.521 4.49333C16.177 3.96333 15.609 3.69933 14.817 3.69933C14.007 3.69933 13.434 3.96333 13.1 4.49333C12.887 4.83133 12.744 5.20433 12.667 5.61333C12.634 5.79133 12.611 5.97533 12.603 6.16733C12.601 6.22733 12.598 6.28733 12.598 6.34833C12.598 7.05533 12.768 7.67333 13.107 8.20333C13.445 8.73333 14.016 8.99833 14.817 8.99833C15.609 8.99833 16.177 8.73333 16.521 8.20333C16.773 7.81333 16.932 7.37433 16.999 6.88833C17.023 6.71433 17.036 6.53433 17.036 6.34833C17.036 6.20833 17.027 6.07333 17.014 5.94133ZM4.601 8.79333C4.558 8.79333 4.515 8.79233 4.471 8.79133C4.159 8.78433 4.152 8.46233 4.152 8.46233V7.01133C4.152 6.83133 4.283 6.78633 4.351 6.77433L4.364 6.77333C4.379 6.77133 4.39 6.77133 4.39 6.77133L4.389 6.77033C4.721 6.72633 5.004 6.61733 5.235 6.43933C5.543 6.20233 5.698 5.83933 5.698 5.34833C5.698 5.29233 5.691 5.19833 5.678 5.06533C5.671 4.99333 5.651 4.91733 5.621 4.83933C5.597 4.77433 5.566 4.70733 5.526 4.63833C5.498 4.58933 5.467 4.54233 5.433 4.49933C5.425 4.48933 5.414 4.47833 5.405 4.46733C5.378 4.43633 5.35 4.40533 5.321 4.37633L5.306 4.36133L5.299 4.35833C4.885 3.98433 4.234 3.90233 3.967 3.88533L3.962 3.88233C3.947 3.88133 3.931 3.88233 3.916 3.88133C3.873 3.87933 3.847 3.87933 3.847 3.87933L3.848 3.88033C3.826 3.87933 3.805 3.87933 3.783 3.87933H2.986C2.734 3.87933 2.528 4.06633 2.528 4.29733V4.34533V10.3993C2.528 10.6283 2.322 10.8173 2.07 10.8173H0.458C0.206 10.8173 0 10.6283 0 10.3993V3.78333V2.29733C0 2.15433 0.08 2.02733 0.202 1.95233C0.275 1.90633 0.363 1.88033 0.458 1.88033H3.84C4.092 1.88033 4.502 1.90533 4.751 1.93633C4.751 1.93633 5.213 1.99533 5.767 2.12233H5.768C5.936 2.16133 6.111 2.20533 6.285 2.25733C6.874 2.46233 7.819 2.95933 8.333 4.11233C8.436 4.37033 8.505 4.63833 8.537 4.91533C8.546 4.98733 8.553 5.06233 8.557 5.13733C8.559 5.16533 8.559 5.19033 8.559 5.21733C8.56 5.24833 8.562 5.28133 8.562 5.31333C8.562 5.32833 8.564 5.34533 8.564 5.36133C8.564 6.32433 8.225 7.13733 7.547 7.79933C6.869 8.46133 5.887 8.79333 4.601 8.79333Z" fill="white"/>
</g>
<defs>
<clipPath id="clip0_1_27">
<rect width="63" height="11" fill="white"/>
</clipPath>
</defs>
</svg>
